<svg data-v-423bf9ae="" xmlns="http://www.w3.org/2000/svg" viewBox="0 0 411.0756372748507 163" class="iconAbove"><!----><!----><!----><g data-v-423bf9ae="" id="3e1e803b-872c-4693-bab6-adce42f43128" fill="white" transform="matrix(5.042016968350994,0,0,5.042016968350994,-1.0588224102895367,90.49579734548354)"><path d="M9.97 8.72L9.97 8.72L9.97 8.72Q9.97 9.56 9.70 10.31L9.70 10.31L9.70 10.31Q9.43 11.05 8.96 11.66L8.96 11.66L8.96 11.66Q8.49 12.26 7.85 12.71L7.85 12.71L7.85 12.71Q7.22 13.17 6.49 13.47L6.49 13.47L6.49 13.47Q5.02 14.08 3.39 14.08L3.39 14.08L1.19 14.08L1.19 14.08Q1.71 13.54 1.71 12.13L1.71 12.13L1.71 5.17L0.21 5.17L0.21 5.17Q0.31 5.15 0.67 4.83L0.67 4.83L0.67 4.83Q1.35 4.25 1.53 4.25L1.53 4.25L4.57 4.24L4.57 4.24Q6.84 4.24 8.31 5.26L8.31 5.26L8.31 5.26Q9.97 6.42 9.97 8.72ZM8.41 11.26L8.41 11.26L8.41 11.26Q8.65 10.60 8.65 9.71L8.65 9.71L8.65 9.71Q8.65 8.82 8.47 8.14L8.47 8.14L8.47 8.14Q8.29 7.46 7.94 6.96L7.94 6.96L7.94 6.96Q7.60 6.46 7.11 6.12L7.11 6.12L7.11 6.12Q6.62 5.78 6.00 5.56L6.00 5.56L6.00 5.56Q4.82 5.17 3.04 5.17L3.04 5.17L3.04 11.76L3.04 11.76Q3.04 12.46 2.83 12.82L2.83 12.82L2.83 12.82Q2.74 12.97 2.60 13.17L2.60 13.17L4.87 13.17L4.87 13.17Q7.72 13.17 8.41 11.26ZM11.33 13.16L11.33 13.16L11.33 13.16Q11.38 13.15 11.87 13.15L11.87 13.15L11.87 13.15Q12.73 13.15 13.14 13.02L13.14 13.02L13.14 13.02Q13.54 12.89 13.72 12.78L13.72 12.78L13.72 12.78Q13.47 12.97 13.25 13.14L13.25 13.14L13.25 13.14Q12.80 13.49 12.52 13.65L12.52 13.65L12.52 13.65Q12.24 13.81 11.97 13.89L11.97 13.89L11.97 13.89Q11.70 13.98 11.41 14.02L11.41 14.02L11.41 14.02Q10.99 14.08 10.25 14.08L10.25 14.08L9.99 14.08L9.99 14.08Q9.99 14.08 10.00 14.07L10.00 14.07L10.00 14.07Q10.00 14.06 10.09 13.96L10.09 13.96L10.09 13.96Q10.19 13.86 10.36 13.66L10.36 13.66L10.36 13.66Q10.54 13.47 10.83 13.08L10.83 13.08L10.83 13.08Q11.13 12.69 11.47 12.07L11.47 12.07L11.47 12.07Q11.82 11.46 12.12 10.82L12.12 10.82L12.12 10.82Q12.41 10.18 12.69 9.52L12.69 9.52L12.69 9.52Q12.96 8.87 13.25 8.21L13.25 8.21L13.25 8.21Q13.54 7.55 13.84 6.87L13.84 6.87L13.84 6.87Q14.14 6.20 14.30 5.82L14.30 5.82L14.30 5.82Q14.45 5.43 14.48 5.34L14.48 5.34L14.48 5.34Q14.50 5.24 14.55 5.17L14.55 5.17L14.03 5.17L14.03 5.17Q12.76 5.17 12.06 5.46L12.06 5.46L12.06 5.46Q13.00 4.64 13.64 4.43L13.64 4.43L13.64 4.43Q14.22 4.25 15.52 4.25L15.52 4.25L15.89 4.25L15.89 4.25Q16.18 5.22 16.48 6.23L16.48 6.23L16.48 6.23Q16.78 7.23 17.08 8.24L17.08 8.24L17.08 8.24Q17.73 10.42 18.06 11.41L18.06 11.41L18.06 11.41Q18.40 12.39 18.45 12.58L18.45 12.58L18.45 12.58Q18.51 12.77 18.60 12.92L18.60 12.92L18.60 12.92Q18.80 13.25 19.24 13.25L19.24 13.25L19.24 13.25Q19.48 13.25 19.74 13.14L19.74 13.14L19.74 13.14Q20.00 13.03 20.15 12.94L20.15 12.94L20.15 12.94Q19.90 13.13 19.71 13.28L19.71 13.28L19.71 13.28Q19.22 13.65 19.08 13.74L19.08 13.74L19.08 13.74Q18.94 13.82 18.81 13.90L18.81 13.90L18.81 13.90Q18.67 13.99 18.52 14.05L18.52 14.05L18.52 14.05Q17.56 14.48 17.23 13.73L17.23 13.73L17.23 13.73Q16.99 13.21 16.65 12.05L16.65 12.05L16.65 12.05Q16.32 10.89 16.06 10.08L16.06 10.08L16.06 10.08Q15.48 10.49 13.56 10.46L13.56 10.46L13.56 10.46Q13.31 10.46 13.13 10.46L13.13 10.46L13.13 10.46Q12.36 12.00 11.63 12.82L11.63 12.82L11.63 12.82Q11.57 12.89 11.50 12.96L11.50 12.96L11.50 12.96Q11.33 13.17 11.33 13.16ZM13.67 9.51L13.67 9.51L15.02 9.54L15.02 9.54Q15.44 9.54 15.88 9.51L15.88 9.51L15.88 9.51Q15.57 8.51 14.94 6.45L14.94 6.45L14.94 6.45Q14.27 8.00 13.57 9.53L13.57 9.53L13.57 9.53Q13.65 9.51 13.67 9.51ZM33.27 11.58L33.27 11.58L33.27 11.58Q33.27 12.60 32.92 13.15L32.92 13.15L34.95 13.15L34.95 13.15Q34.82 13.19 34.64 13.34L34.64 13.34L34.64 13.34Q34.47 13.49 34.29 13.65L34.29 13.65L34.29 13.65Q33.80 14.08 33.61 14.08L33.61 14.08L31.58 14.08L31.58 14.08Q31.92 13.58 31.92 12.70L31.92 12.70L31.92 12.70Q31.92 11.83 31.88 11.02L31.88 11.02L31.88 11.02Q31.83 10.21 31.81 9.63L31.81 9.63L31.81 9.63Q31.78 9.04 31.76 8.66L31.76 8.66L31.76 8.66Q31.75 8.28 31.73 7.89L31.73 7.89L31.73 7.89Q31.68 6.75 31.66 6.38L31.66 6.38L31.66 6.38Q31.05 7.44 30.42 8.58L30.42 8.58L30.42 8.58Q29.78 9.71 29.33 10.50L29.33 10.50L29.33 10.50Q28.88 11.29 28.62 11.80L28.62 11.80L28.62 11.80Q28.36 12.31 28.06 12.82L28.06 12.82L28.06 12.82Q28 12.92 27.41 13.30L27.41 13.30L27.41 13.30Q26.82 13.69 26.74 13.75L26.74 13.75L26.74 13.75Q26.36 12.60 25.79 11.61L25.79 11.61L25.79 11.61Q25.22 10.62 24.86 10.02L24.86 10.02L24.86 10.02Q24.49 9.43 24.13 8.83L24.13 8.83L23.04 7.02L23.04 7.02Q22.75 10.55 22.60 11.34L22.60 11.34L22.60 11.34Q22.44 12.13 22.30 12.53L22.30 12.53L22.30 12.53Q22.16 12.93 21.95 13.15L21.95 13.15L24.14 13.15L24.14 13.15Q23.00 14.08 22.81 14.08L22.81 14.08L20.56 14.08L20.56 14.08Q20.96 13.69 21.23 12.35L21.23 12.35L21.23 12.35Q21.53 10.86 21.93 5.17L21.93 5.17L20.21 5.17L20.21 5.17Q20.71 4.68 21.40 4.30L21.40 4.30L21.40 4.30Q21.49 4.25 21.54 4.25L21.54 4.25L23.26 4.25L23.26 4.25Q23.84 5.20 24.40 6.14L24.40 6.14L25.54 8.03L25.54 8.03Q25.83 8.51 26.12 8.99L26.12 8.99L26.12 8.99Q26.41 9.46 26.69 9.94L26.69 9.94L26.69 9.94Q27.37 11.11 27.72 11.92L27.72 11.92L27.72 11.92Q28.37 10.78 29.25 9.17L29.25 9.17L29.25 9.17Q30.82 6.28 31.58 4.97L31.58 4.97L31.58 4.97Q31.71 4.76 32.59 4.24L32.59 4.24L32.59 4.24Q32.79 4.12 32.91 4.04L32.91 4.04L32.91 4.04Q33.07 7.03 33.14 8.78L33.14 8.78L33.14 8.78Q33.22 10.53 33.24 10.88L33.24 10.88L33.24 10.88Q33.27 11.22 33.27 11.58ZM46.92 4.10L46.92 4.10L46.92 4.10Q47.42 4.23 47.55 4.29L47.55 4.29L47.55 4.29Q47.69 4.35 47.69 4.41L47.69 4.41L47.69 4.41Q47.69 4.47 47.58 4.57L47.58 4.57L47.58 4.57Q47.47 4.68 47.30 4.80L47.30 4.80L47.30 4.80Q47.14 4.93 46.94 5.07L46.94 5.07L46.94 5.07Q46.74 5.22 46.57 5.33L46.57 5.33L46.57 5.33Q46.14 5.61 46.06 5.64L46.06 5.64L46.06 5.64Q46.07 5.61 46.16 5.54L46.16 5.54L46.16 5.54Q46.34 5.39 46.34 5.36L46.34 5.36L46.34 5.36Q46.34 5.32 46.31 5.29L46.31 5.29L46.31 5.29Q46.28 5.27 46.24 5.25L46.24 5.25L46.24 5.25Q46.20 5.24 46.17 5.22L46.17 5.22L46.17 5.22Q46.14 5.21 45.91 5.13L45.91 5.13L45.91 5.13Q45.37 4.92 44.36 4.92L44.36 4.92L44.36 4.92Q43.35 4.92 42.61 5.15L42.61 5.15L42.61 5.15Q41.88 5.39 41.36 5.87L41.36 5.87L41.36 5.87Q40.30 6.86 40.30 8.75L40.30 8.75L40.30 8.75Q40.30 10.67 41.36 12.00L41.36 12.00L41.36 12.00Q42.49 13.42 44.34 13.42L44.34 13.42L44.34 13.42Q45.56 13.42 47.34 12.64L47.34 12.64L47.34 12.64Q47.28 12.69 47.24 12.73L47.24 12.73L47.24 12.73Q47.17 12.80 47.07 12.89L47.07 12.89L47.07 12.89Q45.08 14.38 42.94 14.38L42.94 14.38L42.94 14.38Q41.10 14.38 40.00 12.99L40.00 12.99L40.00 12.99Q38.99 11.70 38.99 9.78L38.99 9.78L38.99 9.78Q38.99 8.80 39.28 8.12L39.28 8.12L39.28 8.12Q39.57 7.44 39.96 6.90L39.96 6.90L39.96 6.90Q40.35 6.37 40.84 5.92L40.84 5.92L40.84 5.92Q41.34 5.47 41.91 5.11L41.91 5.11L41.91 5.11Q42.49 4.75 43.11 4.50L43.11 4.50L43.11 4.50Q44.39 3.98 45.69 3.98L45.69 3.98L45.69 3.98Q46.42 3.98 46.92 4.10ZM54.11 8.18L54.11 8.18L54.11 8.18Q54.46 8.57 54.65 9.08L54.65 9.08L54.65 9.08Q54.84 9.59 54.84 10.10L54.84 10.10L54.84 10.10Q54.84 10.62 54.69 11.10L54.69 11.10L54.69 11.10Q54.54 11.59 54.27 12.04L54.27 12.04L54.27 12.04Q54.00 12.50 53.64 12.89L53.64 12.89L53.64 12.89Q53.27 13.28 52.83 13.58L52.83 13.58L52.83 13.58Q51.91 14.20 50.96 14.20L50.96 14.20L50.96 14.20Q49.84 14.20 49.06 13.33L49.06 13.33L49.06 13.33Q48.30 12.50 48.30 11.38L48.30 11.38L48.30 11.38Q48.30 10.42 48.88 9.45L48.88 9.45L48.88 9.45Q49.75 7.99 51.25 7.48L51.25 7.48L51.25 7.48Q51.73 7.31 52.26 7.31L52.26 7.31L52.26 7.31Q52.79 7.31 53.28 7.54L53.28 7.54L53.28 7.54Q53.76 7.78 54.11 8.18ZM50.87 8.22L50.87 8.22L50.87 8.22Q50.19 8.22 49.88 8.89L49.88 8.89L49.88 8.89Q49.63 9.41 49.63 10.06L49.63 10.06L49.63 10.06Q49.63 10.72 49.80 11.28L49.80 11.28L49.80 11.28Q49.98 11.85 50.32 12.29L50.32 12.29L50.32 12.29Q51.08 13.29 52.27 13.29L52.27 13.29L52.27 13.29Q52.97 13.29 53.29 12.59L53.29 12.59L53.29 12.59Q53.51 12.07 53.51 11.40L53.51 11.40L53.51 11.40Q53.51 10.08 52.78 9.15L52.78 9.15L52.78 9.15Q52.04 8.22 50.87 8.22ZM61.37 8.61L61.37 8.61L61.37 8.61Q62.89 7.44 63.68 7.44L63.68 7.44L63.68 7.44Q64.22 7.44 64.52 7.89L64.52 7.89L64.52 7.89Q64.79 8.26 64.79 8.83L64.79 8.83L64.79 12.09L64.79 12.09Q64.79 12.71 64.87 12.90L64.87 12.90L64.87 12.90Q65.03 13.26 65.56 13.26L65.56 13.26L65.56 13.26Q65.84 13.26 66.08 13.16L66.08 13.16L66.08 13.16Q65.47 13.69 65.24 13.84L65.24 13.84L65.24 13.84Q64.71 14.18 64.31 14.18L64.31 14.18L64.31 14.18Q63.91 14.18 63.74 14.04L63.74 14.04L63.74 14.04Q63.57 13.90 63.51 13.69L63.51 13.69L63.51 13.69Q63.43 13.45 63.43 12.70L63.43 12.70L63.43 10.12L63.43 10.12Q63.43 9.37 63.29 9.05L63.29 9.05L63.29 9.05Q63.15 8.72 62.95 8.56L62.95 8.56L62.95 8.56Q62.74 8.39 62.46 8.39L62.46 8.39L62.46 8.39Q62.19 8.39 62.04 8.48L62.04 8.48L62.04 8.48Q61.89 8.56 61.78 8.69L61.78 8.69L61.78 8.69Q61.37 9.17 61.37 10.26L61.37 10.26L61.37 12.20L61.37 12.20Q61.37 12.71 61.48 12.90L61.48 12.90L61.48 12.90Q61.68 13.26 62.16 13.26L62.16 13.26L62.16 13.26Q62.43 13.26 62.68 13.16L62.68 13.16L62.68 13.16Q62.07 13.69 61.84 13.84L61.84 13.84L61.84 13.84Q61.30 14.18 60.90 14.18L60.90 14.18L60.90 14.18Q60.50 14.18 60.34 14.04L60.34 14.04L60.34 14.04Q60.17 13.90 60.10 13.69L60.10 13.69L60.10 13.69Q60.03 13.45 60.03 12.70L60.03 12.70L60.03 10.12L60.03 10.12Q60.03 9.37 59.89 9.05L59.89 9.05L59.89 9.05Q59.75 8.72 59.54 8.56L59.54 8.56L59.54 8.56Q59.34 8.39 59.05 8.39L59.05 8.39L59.05 8.39Q58.76 8.39 58.60 8.50L58.60 8.50L58.60 8.50Q58.45 8.61 58.33 8.79L58.33 8.79L58.33 8.79Q58.22 8.98 58.15 9.20L58.15 9.20L58.15 9.20Q58.08 9.43 58.04 9.67L58.04 9.67L58.04 9.67Q57.98 10.08 57.98 10.53L57.98 10.53L57.98 12.64L57.98 12.64Q57.98 13.08 58.25 13.23L58.25 13.23L58.25 13.23Q58.34 13.30 58.49 13.30L58.49 13.30L58.49 13.30Q58.63 13.30 58.79 13.23L58.79 13.23L58.79 13.23Q58.00 13.90 57.68 14.06L57.68 14.06L57.68 14.06Q57.36 14.22 57.17 14.22L57.17 14.22L57.17 14.22Q56.65 14.22 56.65 13.62L56.65 13.62L56.65 9.68L56.65 9.68Q56.65 9.44 56.66 9.20L56.66 9.20L56.66 9.20Q56.66 8.96 56.61 8.76L56.61 8.76L56.61 8.76Q56.48 8.33 55.86 8.33L55.86 8.33L55.86 8.33Q55.57 8.33 55.28 8.44L55.28 8.44L55.28 8.44Q55.45 8.38 55.73 8.12L55.73 8.12L55.73 8.12Q56.28 7.63 56.49 7.55L56.49 7.55L56.49 7.55Q56.93 7.39 57.23 7.39L57.23 7.39L57.23 7.39Q57.52 7.39 57.68 7.50L57.68 7.50L57.68 7.50Q57.83 7.61 57.90 7.78L57.90 7.78L57.90 7.78Q57.98 7.99 57.98 8.60L57.98 8.60L57.98 8.60Q58.87 7.90 59.71 7.57L59.71 7.57L59.71 7.57Q60.02 7.44 60.27 7.44L60.27 7.44L60.27 7.44Q60.53 7.44 60.72 7.54L60.72 7.54L60.72 7.54Q60.92 7.64 61.05 7.80L61.05 7.80L61.05 7.80Q61.33 8.13 61.37 8.61ZM67.25 3.41L68.58 2.48L68.62 3.26L68.62 3.62L68.62 3.62Q68.62 3.94 68.54 4.02L68.54 4.02L68.54 4.02Q68.46 4.09 68.36 4.16L68.36 4.16L68.36 4.16Q67.98 4.43 67.25 4.89L67.25 4.89L67.25 4.89Q67.29 4.21 67.29 4.19L67.29 4.19L67.29 4.19Q67.29 4.16 67.25 3.41L67.25 3.41ZM70.01 13.24L70.01 13.24L70.01 13.24Q69.80 13.41 69.61 13.58L69.61 13.58L69.61 13.58Q69.41 13.75 69.20 13.89L69.20 13.89L69.20 13.89Q68.71 14.21 68.26 14.21L68.26 14.21L68.26 14.21Q67.83 14.21 67.66 14.08L67.66 14.08L67.66 14.08Q67.31 13.82 67.31 13.13L67.31 13.13L67.31 9.88L67.31 9.88Q67.31 9.15 67.05 8.93L67.05 8.93L67.05 8.93Q66.92 8.83 66.78 8.83L66.78 8.83L66.78 8.83Q66.64 8.83 66.54 8.84L66.54 8.84L66.54 8.84Q66.44 8.86 66.34 8.88L66.34 8.88L66.34 8.88Q66.23 8.90 66.12 8.92L66.12 8.92L66.12 8.92Q66.47 8.65 66.76 8.44L66.76 8.44L66.76 8.44Q67.06 8.23 67.27 8.09L67.27 8.09L67.27 8.09Q67.48 7.94 67.86 7.68L67.86 7.68L67.86 7.68Q68.24 7.42 68.64 7.21L68.64 7.21L68.64 12.03L68.64 12.03Q68.64 12.73 68.73 12.91L68.73 12.91L68.73 12.91Q68.92 13.29 69.58 13.29L69.58 13.29L69.58 13.29Q69.75 13.29 70.01 13.24ZM74.89 8.79L74.89 8.79L74.89 8.79Q75.02 8.65 75.02 8.59L75.02 8.59L75.02 8.59Q75.02 8.52 74.93 8.46L74.93 8.46L74.93 8.46Q74.84 8.39 74.69 8.34L74.69 8.34L74.69 8.34Q74.55 8.29 74.37 8.25L74.37 8.25L74.37 8.25Q74.19 8.20 74.03 8.18L74.03 8.18L74.03 8.18Q73.68 8.11 73.36 8.11L73.36 8.11L73.36 8.11Q73.04 8.11 72.70 8.30L72.70 8.30L72.70 8.30Q72.37 8.50 72.17 8.82L72.17 8.82L72.17 8.82Q71.83 9.39 71.83 10.21L71.83 10.21L71.83 10.21Q71.83 11.03 72.00 11.56L72.00 11.56L72.00 11.56Q72.18 12.09 72.52 12.47L72.52 12.47L72.52 12.47Q73.24 13.26 74.55 13.26L74.55 13.26L74.55 13.26Q75.38 13.26 76.12 12.85L76.12 12.85L76.12 12.85Q75.26 13.78 73.94 14.10L73.94 14.10L73.94 14.10Q73.52 14.19 73.01 14.19L73.01 14.19L73.01 14.19Q72.51 14.19 72.02 13.98L72.02 13.98L72.02 13.98Q71.52 13.77 71.18 13.39L71.18 13.39L71.18 13.39Q70.48 12.62 70.48 11.39L70.48 11.39L70.48 11.39Q70.48 10.39 71.17 9.38L71.17 9.38L71.17 9.38Q72.19 7.90 73.86 7.37L73.86 7.37L73.86 7.37Q74.38 7.20 74.80 7.20L74.80 7.20L74.80 7.20Q75.80 7.20 76.29 7.57L76.29 7.57L76.29 7.57Q76.34 7.61 76.34 7.68L76.34 7.68L76.34 7.68Q76.34 7.92 75.35 8.57L75.35 8.57L75.35 8.57Q74.99 8.79 74.89 8.79ZM79.95 8.78L79.95 8.78L79.95 8.78Q80.08 8.68 80.08 8.57L80.08 8.57L80.08 8.57Q80.08 8.46 79.95 8.40L79.95 8.40L79.95 8.40Q79.82 8.34 79.65 8.31L79.65 8.31L79.65 8.31Q79.39 8.25 79.16 8.25L79.16 8.25L79.16 8.25Q78.93 8.25 78.80 8.27L78.80 8.27L78.80 8.27Q78.67 8.30 78.59 8.36L78.59 8.36L78.59 8.36Q78.39 8.49 78.39 8.82L78.39 8.82L78.39 8.82Q78.39 9.15 78.54 9.35L78.54 9.35L78.54 9.35Q78.68 9.56 78.92 9.71L78.92 9.71L78.92 9.71Q79.15 9.85 79.45 9.95L79.45 9.95L79.45 9.95Q79.75 10.04 80.07 10.13L80.07 10.13L80.07 10.13Q80.38 10.23 80.68 10.34L80.68 10.34L80.68 10.34Q80.98 10.45 81.21 10.62L81.21 10.62L81.21 10.62Q81.74 11.01 81.74 11.68L81.74 11.68L81.74 11.68Q81.74 12.34 81.10 12.97L81.10 12.97L81.10 12.97Q80.56 13.51 79.68 13.89L79.68 13.89L79.68 13.89Q78.86 14.25 78.22 14.25L78.22 14.25L78.22 14.25Q77.44 14.25 76.97 13.92L76.97 13.92L76.97 13.92Q76.79 13.79 76.79 13.60L76.79 13.60L76.79 13.60Q76.79 13.41 76.97 13.24L76.97 13.24L76.97 13.24Q77.15 13.08 77.39 12.94L77.39 12.94L77.39 12.94Q77.63 12.80 77.87 12.68L77.87 12.68L77.87 12.68Q78.11 12.55 78.23 12.41L78.23 12.41L78.23 12.41Q78.11 12.54 78.11 12.71L78.11 12.71L78.11 12.71Q78.11 12.89 78.30 13.01L78.30 13.01L78.30 13.01Q78.49 13.13 78.75 13.19L78.75 13.19L78.75 13.19Q79.20 13.30 79.62 13.30L79.62 13.30L79.62 13.30Q80.04 13.30 80.22 13.15L80.22 13.15L80.22 13.15Q80.41 13.00 80.41 12.63L80.41 12.63L80.41 12.63Q80.41 12.27 80.27 12.04L80.27 12.04L80.27 12.04Q80.12 11.81 79.89 11.65L79.89 11.65L79.89 11.65Q79.66 11.48 79.36 11.37L79.36 11.37L79.36 11.37Q79.06 11.26 78.75 11.15L78.75 11.15L78.75 11.15Q78.44 11.05 78.13 10.94L78.13 10.94L78.13 10.94Q77.83 10.83 77.60 10.67L77.60 10.67L77.60 10.67Q77.08 10.32 77.08 9.76L77.08 9.76L77.08 9.76Q77.08 9.23 77.71 8.62L77.71 8.62L77.71 8.62Q78.26 8.10 78.85 7.81L78.85 7.81L78.85 7.81Q79.87 7.31 80.39 7.31L80.39 7.31L80.39 7.31Q80.93 7.31 81.17 7.43L81.17 7.43L81.17 7.43Q81.41 7.55 81.41 7.63L81.41 7.63L81.41 7.63Q81.41 7.72 81.35 7.79L81.35 7.79L81.35 7.79Q81.30 7.85 81.22 7.91L81.22 7.91L81.22 7.91Q81.14 7.97 81.06 8.02L81.06 8.02L81.06 8.02Q80.98 8.07 80.83 8.16L80.83 8.16L80.83 8.16Q80.68 8.26 80.42 8.42L80.42 8.42L80.42 8.42Q80.17 8.58 79.95 8.78Z"></path></g><!----><g data-v-423bf9ae="" id="51be7b88-32c2-41e8-ab09-41f2f7deeaac" transform="matrix(1.198242446102869,0,0,1.198242446102869,145.89611833193183,-15.578143034254857)" stroke="none" fill="white"><path d="M49.569 22.967c-9.975-5.691-20.677-9.125-31.045-9.962v58.351c10.367.814 21.05 4.154 31.045 9.699V22.967z"></path><path d="M49.229 84.073c.814.278 1.671.29 2.485.012 11.657-5.043 23.865-7.313 35.798-6.79V19.524a67.09 67.09 0 0 0-3.24-.055v53.594l-.852.056c-10.672.697-21.732 4.177-32.021 10.048a2.826 2.826 0 0 1-1.83 0c-10.29-5.871-21.349-9.351-32.021-10.048l-.854-.056V19.469a65.788 65.788 0 0 0-3.239.055v57.771c11.932-.524 24.114 1.735 35.774 6.778z"></path><path d="M92.579 26.009c-1.07-.149-2.157-.228-3.237-.335v53.55l-.968-.056c-12.195-.699-25.06 1.777-36.975 7.065l-.916.381-.915-.381c-11.917-5.288-24.781-7.765-36.976-7.065l-.967.056v-53.55c-1.081.108-2.168.187-3.238.335v58.707a4.876 4.876 0 0 1 1.044.748c12.951-1.75 26.393-1.536 39.18 2.651a19.022 19.022 0 0 1 1.873-.095c.661 0 1.285.037 1.872.095 12.785-4.188 26.229-4.401 39.179-2.651 0 0 .474-.462 1.044-.748V26.009z"></path><path d="M65.283 16.667v20.625l-3.98-4.738-4.195 4.738V19.994a83.542 83.542 0 0 0-5.708 2.974v58.087c9.993-5.545 20.679-8.885 31.045-9.699V13.005c-5.679.459-11.458 1.701-17.162 3.662z"></path></g><!----></svg>