<svg data-v-423bf9ae="" xmlns="http://www.w3.org/2000/svg" viewBox="0 0 372.8033532306775 163" class="iconAbove"><!----><!----><!----><g data-v-423bf9ae="" id="8768e8b9-d49d-4e1a-90a0-66e59629d57d" fill="white" transform="matrix(5.020920582231347,0,0,5.020920582231347,-1.054389062957398,91.45188123135401)"><path d="M9.97 8.72L9.97 8.72L9.97 8.72Q9.97 9.56 9.70 10.31L9.70 10.31L9.70 10.31Q9.43 11.05 8.96 11.66L8.96 11.66L8.96 11.66Q8.49 12.26 7.85 12.71L7.85 12.71L7.85 12.71Q7.22 13.17 6.49 13.47L6.49 13.47L6.49 13.47Q5.02 14.08 3.39 14.08L3.39 14.08L1.19 14.08L1.19 14.08Q1.71 13.54 1.71 12.13L1.71 12.13L1.71 5.17L0.21 5.17L0.21 5.17Q0.31 5.15 0.67 4.83L0.67 4.83L0.67 4.83Q1.35 4.25 1.53 4.25L1.53 4.25L4.57 4.24L4.57 4.24Q6.84 4.24 8.31 5.26L8.31 5.26L8.31 5.26Q9.97 6.42 9.97 8.72ZM8.41 11.26L8.41 11.26L8.41 11.26Q8.65 10.60 8.65 9.71L8.65 9.71L8.65 9.71Q8.65 8.82 8.47 8.14L8.47 8.14L8.47 8.14Q8.29 7.46 7.94 6.96L7.94 6.96L7.94 6.96Q7.60 6.46 7.11 6.12L7.11 6.12L7.11 6.12Q6.62 5.78 6.00 5.56L6.00 5.56L6.00 5.56Q4.82 5.17 3.04 5.17L3.04 5.17L3.04 11.76L3.04 11.76Q3.04 12.46 2.83 12.82L2.83 12.82L2.83 12.82Q2.74 12.97 2.60 13.17L2.60 13.17L4.87 13.17L4.87 13.17Q7.72 13.17 8.41 11.26ZM11.33 13.16L11.33 13.16L11.33 13.16Q11.38 13.15 11.87 13.15L11.87 13.15L11.87 13.15Q12.73 13.15 13.14 13.02L13.14 13.02L13.14 13.02Q13.54 12.89 13.72 12.78L13.72 12.78L13.72 12.78Q13.47 12.97 13.25 13.14L13.25 13.14L13.25 13.14Q12.80 13.49 12.52 13.65L12.52 13.65L12.52 13.65Q12.24 13.81 11.97 13.89L11.97 13.89L11.97 13.89Q11.70 13.98 11.41 14.02L11.41 14.02L11.41 14.02Q10.99 14.08 10.25 14.08L10.25 14.08L9.99 14.08L9.99 14.08Q9.99 14.08 10.00 14.07L10.00 14.07L10.00 14.07Q10.00 14.06 10.09 13.96L10.09 13.96L10.09 13.96Q10.19 13.86 10.36 13.66L10.36 13.66L10.36 13.66Q10.54 13.47 10.83 13.08L10.83 13.08L10.83 13.08Q11.13 12.69 11.47 12.07L11.47 12.07L11.47 12.07Q11.82 11.46 12.12 10.82L12.12 10.82L12.12 10.82Q12.41 10.18 12.69 9.52L12.69 9.52L12.69 9.52Q12.96 8.87 13.25 8.21L13.25 8.21L13.25 8.21Q13.54 7.55 13.84 6.87L13.84 6.87L13.84 6.87Q14.14 6.20 14.30 5.82L14.30 5.82L14.30 5.82Q14.45 5.43 14.48 5.34L14.48 5.34L14.48 5.34Q14.50 5.24 14.55 5.17L14.55 5.17L14.03 5.17L14.03 5.17Q12.76 5.17 12.06 5.46L12.06 5.46L12.06 5.46Q13.00 4.64 13.64 4.43L13.64 4.43L13.64 4.43Q14.22 4.25 15.52 4.25L15.52 4.25L15.89 4.25L15.89 4.25Q16.18 5.22 16.48 6.23L16.48 6.23L16.48 6.23Q16.78 7.23 17.08 8.24L17.08 8.24L17.08 8.24Q17.73 10.42 18.06 11.41L18.06 11.41L18.06 11.41Q18.40 12.39 18.45 12.58L18.45 12.58L18.45 12.58Q18.51 12.77 18.60 12.92L18.60 12.92L18.60 12.92Q18.80 13.25 19.24 13.25L19.24 13.25L19.24 13.25Q19.48 13.25 19.74 13.14L19.74 13.14L19.74 13.14Q20.00 13.03 20.15 12.94L20.15 12.94L20.15 12.94Q19.90 13.13 19.71 13.28L19.71 13.28L19.71 13.28Q19.22 13.65 19.08 13.74L19.08 13.74L19.08 13.74Q18.94 13.82 18.81 13.90L18.81 13.90L18.81 13.90Q18.67 13.99 18.52 14.05L18.52 14.05L18.52 14.05Q17.56 14.48 17.23 13.73L17.23 13.73L17.23 13.73Q16.99 13.21 16.65 12.05L16.65 12.05L16.65 12.05Q16.32 10.89 16.06 10.08L16.06 10.08L16.06 10.08Q15.48 10.49 13.56 10.46L13.56 10.46L13.56 10.46Q13.31 10.46 13.13 10.46L13.13 10.46L13.13 10.46Q12.36 12.00 11.63 12.82L11.63 12.82L11.63 12.82Q11.57 12.89 11.50 12.96L11.50 12.96L11.50 12.96Q11.33 13.17 11.33 13.16ZM13.67 9.51L13.67 9.51L15.02 9.54L15.02 9.54Q15.44 9.54 15.88 9.51L15.88 9.51L15.88 9.51Q15.57 8.51 14.94 6.45L14.94 6.45L14.94 6.45Q14.27 8.00 13.57 9.53L13.57 9.53L13.57 9.53Q13.65 9.51 13.67 9.51ZM33.27 11.58L33.27 11.58L33.27 11.58Q33.27 12.60 32.92 13.15L32.92 13.15L34.95 13.15L34.95 13.15Q34.82 13.19 34.64 13.34L34.64 13.34L34.64 13.34Q34.47 13.49 34.29 13.65L34.29 13.65L34.29 13.65Q33.80 14.08 33.61 14.08L33.61 14.08L31.58 14.08L31.58 14.08Q31.92 13.58 31.92 12.70L31.92 12.70L31.92 12.70Q31.92 11.83 31.88 11.02L31.88 11.02L31.88 11.02Q31.83 10.21 31.81 9.63L31.81 9.63L31.81 9.63Q31.78 9.04 31.76 8.66L31.76 8.66L31.76 8.66Q31.75 8.28 31.73 7.89L31.73 7.89L31.73 7.89Q31.68 6.75 31.66 6.38L31.66 6.38L31.66 6.38Q31.05 7.44 30.42 8.58L30.42 8.58L30.42 8.58Q29.78 9.71 29.33 10.50L29.33 10.50L29.33 10.50Q28.88 11.29 28.62 11.80L28.62 11.80L28.62 11.80Q28.36 12.31 28.06 12.82L28.06 12.82L28.06 12.82Q28 12.92 27.41 13.30L27.41 13.30L27.41 13.30Q26.82 13.69 26.74 13.75L26.74 13.75L26.74 13.75Q26.36 12.60 25.79 11.61L25.79 11.61L25.79 11.61Q25.22 10.62 24.86 10.02L24.86 10.02L24.86 10.02Q24.49 9.43 24.13 8.83L24.13 8.83L23.04 7.02L23.04 7.02Q22.75 10.55 22.60 11.34L22.60 11.34L22.60 11.34Q22.44 12.13 22.30 12.53L22.30 12.53L22.30 12.53Q22.16 12.93 21.95 13.15L21.95 13.15L24.14 13.15L24.14 13.15Q23.00 14.08 22.81 14.08L22.81 14.08L20.56 14.08L20.56 14.08Q20.96 13.69 21.23 12.35L21.23 12.35L21.23 12.35Q21.53 10.86 21.93 5.17L21.93 5.17L20.21 5.17L20.21 5.17Q20.71 4.68 21.40 4.30L21.40 4.30L21.40 4.30Q21.49 4.25 21.54 4.25L21.54 4.25L23.26 4.25L23.26 4.25Q23.84 5.20 24.40 6.14L24.40 6.14L25.54 8.03L25.54 8.03Q25.83 8.51 26.12 8.99L26.12 8.99L26.12 8.99Q26.41 9.46 26.69 9.94L26.69 9.94L26.69 9.94Q27.37 11.11 27.72 11.92L27.72 11.92L27.72 11.92Q28.37 10.78 29.25 9.17L29.25 9.17L29.25 9.17Q30.82 6.28 31.58 4.97L31.58 4.97L31.58 4.97Q31.71 4.76 32.59 4.24L32.59 4.24L32.59 4.24Q32.79 4.12 32.91 4.04L32.91 4.04L32.91 4.04Q33.07 7.03 33.14 8.78L33.14 8.78L33.14 8.78Q33.22 10.53 33.24 10.88L33.24 10.88L33.24 10.88Q33.27 11.22 33.27 11.58ZM41.79 4.25L41.79 4.25L43.14 4.24L43.14 4.24Q44.29 4.24 44.84 4.57L44.84 4.57L44.84 4.57Q45.57 5.00 45.57 6.06L45.57 6.06L45.57 6.06Q45.57 7.04 44.43 7.87L44.43 7.87L44.43 7.87Q44.12 8.09 43.83 8.30L43.83 8.30L43.83 8.30Q45.47 8.48 46.01 9.65L46.01 9.65L46.01 9.65Q46.20 10.06 46.20 10.53L46.20 10.53L46.20 10.53Q46.20 11.00 46.02 11.38L46.02 11.38L46.02 11.38Q45.85 11.75 45.56 12.10L45.56 12.10L45.56 12.10Q45.27 12.44 44.90 12.75L44.90 12.75L44.90 12.75Q44.52 13.06 44.13 13.30L44.13 13.30L44.13 13.30Q43.03 13.97 42.21 14.03L42.21 14.03L42.21 14.03Q41.62 14.08 41.17 14.08L41.17 14.08L39.63 14.08L39.63 14.08Q39.93 13.66 39.99 13.47L39.99 13.47L39.99 13.47Q40.09 13.18 40.09 12.67L40.09 12.67L40.09 5.17L38.58 5.17L38.58 5.17Q39.67 4.25 39.91 4.25L39.91 4.25L39.91 4.25Q40.85 4.25 41.79 4.25ZM41.41 5.14L41.41 8.31L41.41 8.31Q41.84 8.29 42.49 8.29L42.49 8.29L42.49 8.29Q43.13 8.29 43.42 8.31L43.42 8.31L43.42 8.31Q44.10 8.09 44.21 7.49L44.21 7.49L44.21 7.49Q44.25 7.28 44.25 7.01L44.25 7.01L44.25 7.01Q44.25 5.13 41.89 5.13L41.89 5.13L41.89 5.13Q41.64 5.13 41.41 5.14L41.41 5.14ZM41.41 9.21L41.41 11.71L41.41 11.71Q41.41 12.50 40.97 13.15L40.97 13.15L42.88 13.15L42.88 13.15Q43.68 13.15 44.06 12.93L44.06 12.93L44.06 12.93Q44.45 12.71 44.65 12.39L44.65 12.39L44.65 12.39Q44.84 12.07 44.84 11.55L44.84 11.55L44.84 11.55Q44.84 11.02 44.70 10.64L44.70 10.64L44.70 10.64Q44.56 10.27 44.31 10.01L44.31 10.01L44.31 10.01Q44.06 9.75 43.73 9.59L43.73 9.59L43.73 9.59Q43.39 9.43 43.01 9.35L43.01 9.35L43.01 9.35Q42.39 9.21 41.41 9.21L41.41 9.21ZM53.12 8.18L53.12 8.18L53.12 8.18Q53.47 8.57 53.67 9.08L53.67 9.08L53.67 9.08Q53.86 9.59 53.86 10.10L53.86 10.10L53.86 10.10Q53.86 10.62 53.71 11.10L53.71 11.10L53.71 11.10Q53.56 11.59 53.29 12.04L53.29 12.04L53.29 12.04Q53.02 12.50 52.65 12.89L52.65 12.89L52.65 12.89Q52.29 13.28 51.85 13.58L51.85 13.58L51.85 13.58Q50.92 14.20 49.97 14.20L49.97 14.20L49.97 14.20Q48.86 14.20 48.08 13.33L48.08 13.33L48.08 13.33Q47.32 12.50 47.32 11.38L47.32 11.38L47.32 11.38Q47.32 10.42 47.90 9.45L47.90 9.45L47.90 9.45Q48.77 7.99 50.26 7.48L50.26 7.48L50.26 7.48Q50.74 7.31 51.28 7.31L51.28 7.31L51.28 7.31Q51.81 7.31 52.29 7.54L52.29 7.54L52.29 7.54Q52.77 7.78 53.12 8.18ZM49.89 8.22L49.89 8.22L49.89 8.22Q49.21 8.22 48.89 8.89L48.89 8.89L48.89 8.89Q48.64 9.41 48.64 10.06L48.64 10.06L48.64 10.06Q48.64 10.72 48.82 11.28L48.82 11.28L48.82 11.28Q48.99 11.85 49.33 12.29L49.33 12.29L49.33 12.29Q50.09 13.29 51.29 13.29L51.29 13.29L51.29 13.29Q51.99 13.29 52.30 12.59L52.30 12.59L52.30 12.59Q52.53 12.07 52.53 11.40L52.53 11.40L52.53 11.40Q52.53 10.08 51.79 9.15L51.79 9.15L51.79 9.15Q51.06 8.22 49.89 8.22ZM60.66 8.18L60.66 8.18L60.66 8.18Q61.00 8.57 61.20 9.08L61.20 9.08L61.20 9.08Q61.39 9.59 61.39 10.10L61.39 10.10L61.39 10.10Q61.39 10.62 61.24 11.10L61.24 11.10L61.24 11.10Q61.09 11.59 60.82 12.04L60.82 12.04L60.82 12.04Q60.55 12.50 60.19 12.89L60.19 12.89L60.19 12.89Q59.82 13.28 59.38 13.58L59.38 13.58L59.38 13.58Q58.45 14.20 57.50 14.20L57.50 14.20L57.50 14.20Q56.39 14.20 55.61 13.33L55.61 13.33L55.61 13.33Q54.85 12.50 54.85 11.38L54.85 11.38L54.85 11.38Q54.85 10.42 55.43 9.45L55.43 9.45L55.43 9.45Q56.30 7.99 57.80 7.48L57.80 7.48L57.80 7.48Q58.28 7.31 58.81 7.31L58.81 7.31L58.81 7.31Q59.34 7.31 59.82 7.54L59.82 7.54L59.82 7.54Q60.31 7.78 60.66 8.18ZM57.42 8.22L57.42 8.22L57.42 8.22Q56.74 8.22 56.42 8.89L56.42 8.89L56.42 8.89Q56.18 9.41 56.18 10.06L56.18 10.06L56.18 10.06Q56.18 10.72 56.35 11.28L56.35 11.28L56.35 11.28Q56.53 11.85 56.87 12.29L56.87 12.29L56.87 12.29Q57.63 13.29 58.82 13.29L58.82 13.29L58.82 13.29Q59.52 13.29 59.83 12.59L59.83 12.59L59.83 12.59Q60.06 12.07 60.06 11.40L60.06 11.40L60.06 11.40Q60.06 10.08 59.33 9.15L59.33 9.15L59.33 9.15Q58.59 8.22 57.42 8.22ZM62.95 13.24L62.95 4.94L62.95 4.94Q62.95 3.92 62.34 3.92L62.34 3.92L62.34 3.92Q62.17 3.92 61.76 4.02L61.76 4.02L61.76 4.02Q62.04 3.81 62.35 3.57L62.35 3.57L62.35 3.57Q62.66 3.34 62.98 3.10L62.98 3.10L62.98 3.10Q63.68 2.62 64.28 2.30L64.28 2.30L64.27 8.58L64.27 8.58Q65.04 7.90 65.97 7.57L65.97 7.57L65.97 7.57Q66.29 7.46 66.53 7.46L66.53 7.46L66.53 7.46Q66.77 7.46 66.95 7.55L66.95 7.55L66.95 7.55Q67.14 7.63 67.28 7.77L67.28 7.77L67.28 7.77Q67.57 8.07 67.57 8.46L67.57 8.46L67.57 8.46Q67.57 8.84 67.38 9.15L67.38 9.15L67.38 9.15Q67.19 9.46 66.91 9.73L66.91 9.73L66.91 9.73Q66.51 10.13 65.74 10.63L65.74 10.63L65.74 10.63Q65.84 10.73 66.05 10.96L66.05 10.96L66.05 10.96Q66.25 11.20 66.52 11.48L66.52 11.48L66.52 11.48Q66.78 11.77 67.08 12.08L67.08 12.08L67.08 12.08Q67.38 12.39 67.64 12.64L67.64 12.64L67.64 12.64Q68.26 13.22 68.45 13.22L68.45 13.22L68.45 13.22Q68.93 13.22 69.39 12.95L69.39 12.95L69.39 12.95Q68.80 13.76 67.95 14.09L67.95 14.09L67.95 14.09Q67.66 14.20 67.45 14.20L67.45 14.20L67.45 14.20Q67.23 14.20 67.10 14.15L67.10 14.15L67.10 14.15Q66.98 14.10 66.86 14.03L66.86 14.03L66.86 14.03Q66.64 13.88 66.25 13.49L66.25 13.49L66.25 13.49Q65.45 12.69 64.27 11.41L64.27 11.41L64.27 12.11L64.27 12.11Q64.27 12.27 64.27 12.47L64.27 12.47L64.27 12.47Q64.26 12.67 64.31 12.86L64.31 12.86L64.31 12.86Q64.40 13.30 64.78 13.30L64.78 13.30L64.78 13.30Q64.93 13.30 65.08 13.23L65.08 13.23L65.08 13.23Q64.94 13.35 64.75 13.52L64.75 13.52L64.75 13.52Q64.57 13.69 64.35 13.85L64.35 13.85L64.35 13.85Q63.85 14.23 63.52 14.23L63.52 14.23L63.52 14.23Q62.95 14.23 62.95 13.24L62.95 13.24ZM65.24 8.39L65.24 8.39L65.24 8.39Q64.27 8.39 64.27 10.86L64.27 10.86L64.27 11.22L64.27 11.22Q65.52 10.72 66.04 9.97L66.04 9.97L66.04 9.97Q66.25 9.68 66.25 9.40L66.25 9.40L66.25 9.40Q66.25 9.13 66.17 8.95L66.17 8.95L66.17 8.95Q66.08 8.78 65.95 8.65L65.95 8.65L65.95 8.65Q65.65 8.39 65.24 8.39ZM72.68 8.78L72.68 8.78L72.68 8.78Q72.81 8.68 72.81 8.57L72.81 8.57L72.81 8.57Q72.81 8.46 72.68 8.40L72.68 8.40L72.68 8.40Q72.55 8.34 72.38 8.31L72.38 8.31L72.38 8.31Q72.11 8.25 71.88 8.25L71.88 8.25L71.88 8.25Q71.65 8.25 71.53 8.27L71.53 8.27L71.53 8.27Q71.40 8.30 71.31 8.36L71.31 8.36L71.31 8.36Q71.12 8.49 71.12 8.82L71.12 8.82L71.12 8.82Q71.12 9.15 71.26 9.35L71.26 9.35L71.26 9.35Q71.41 9.56 71.64 9.71L71.64 9.71L71.64 9.71Q71.88 9.85 72.18 9.95L72.18 9.95L72.18 9.95Q72.48 10.04 72.79 10.13L72.79 10.13L72.79 10.13Q73.10 10.23 73.40 10.34L73.40 10.34L73.40 10.34Q73.71 10.45 73.94 10.62L73.94 10.62L73.94 10.62Q74.46 11.01 74.46 11.68L74.46 11.68L74.46 11.68Q74.46 12.34 73.83 12.97L73.83 12.97L73.83 12.97Q73.29 13.51 72.41 13.89L72.41 13.89L72.41 13.89Q71.59 14.25 70.94 14.25L70.94 14.25L70.94 14.25Q70.16 14.25 69.69 13.92L69.69 13.92L69.69 13.92Q69.52 13.79 69.52 13.60L69.52 13.60L69.52 13.60Q69.52 13.41 69.70 13.24L69.70 13.24L69.70 13.24Q69.88 13.08 70.12 12.94L70.12 12.94L70.12 12.94Q70.36 12.80 70.59 12.68L70.59 12.68L70.59 12.68Q70.83 12.55 70.96 12.41L70.96 12.41L70.96 12.41Q70.83 12.54 70.83 12.71L70.83 12.71L70.83 12.71Q70.83 12.89 71.03 13.01L71.03 13.01L71.03 13.01Q71.22 13.13 71.48 13.19L71.48 13.19L71.48 13.19Q71.93 13.30 72.34 13.30L72.34 13.30L72.34 13.30Q72.76 13.30 72.95 13.15L72.95 13.15L72.95 13.15Q73.14 13.00 73.14 12.63L73.14 12.63L73.14 12.63Q73.14 12.27 72.99 12.04L72.99 12.04L72.99 12.04Q72.85 11.81 72.62 11.65L72.62 11.65L72.62 11.65Q72.39 11.48 72.08 11.37L72.08 11.37L72.08 11.37Q71.78 11.26 71.47 11.15L71.47 11.15L71.47 11.15Q71.16 11.05 70.86 10.94L70.86 10.94L70.86 10.94Q70.56 10.83 70.33 10.67L70.33 10.67L70.33 10.67Q69.81 10.32 69.81 9.76L69.81 9.76L69.81 9.76Q69.81 9.23 70.44 8.62L70.44 8.62L70.44 8.62Q70.98 8.10 71.58 7.81L71.58 7.81L71.58 7.81Q72.60 7.31 73.12 7.31L73.12 7.31L73.12 7.31Q73.66 7.31 73.90 7.43L73.90 7.43L73.90 7.43Q74.14 7.55 74.14 7.63L74.14 7.63L74.14 7.63Q74.14 7.72 74.08 7.79L74.08 7.79L74.08 7.79Q74.03 7.85 73.95 7.91L73.95 7.91L73.95 7.91Q73.87 7.97 73.79 8.02L73.79 8.02L73.79 8.02Q73.71 8.07 73.55 8.16L73.55 8.16L73.55 8.16Q73.40 8.26 73.15 8.42L73.15 8.42L73.15 8.42Q72.90 8.58 72.68 8.78Z"></path></g><!----><g data-v-423bf9ae="" id="70a1e6a1-d639-41bf-b0fd-313d0960d73c" transform="matrix(1.198242446102869,0,0,1.198242446102869,126.89611833193183,-15.578143034254857)" stroke="none" fill="white"><path d="M49.569 22.967c-9.975-5.691-20.677-9.125-31.045-9.962v58.351c10.367.814 21.05 4.154 31.045 9.699V22.967z"></path><path d="M49.229 84.073c.814.278 1.671.29 2.485.012 11.657-5.043 23.865-7.313 35.798-6.79V19.524a67.09 67.09 0 0 0-3.24-.055v53.594l-.852.056c-10.672.697-21.732 4.177-32.021 10.048a2.826 2.826 0 0 1-1.83 0c-10.29-5.871-21.349-9.351-32.021-10.048l-.854-.056V19.469a65.788 65.788 0 0 0-3.239.055v57.771c11.932-.524 24.114 1.735 35.774 6.778z"></path><path d="M92.579 26.009c-1.07-.149-2.157-.228-3.237-.335v53.55l-.968-.056c-12.195-.699-25.06 1.777-36.975 7.065l-.916.381-.915-.381c-11.917-5.288-24.781-7.765-36.976-7.065l-.967.056v-53.55c-1.081.108-2.168.187-3.238.335v58.707a4.876 4.876 0 0 1 1.044.748c12.951-1.75 26.393-1.536 39.18 2.651a19.022 19.022 0 0 1 1.873-.095c.661 0 1.285.037 1.872.095 12.785-4.188 26.229-4.401 39.179-2.651 0 0 .474-.462 1.044-.748V26.009z"></path><path d="M65.283 16.667v20.625l-3.98-4.738-4.195 4.738V19.994a83.542 83.542 0 0 0-5.708 2.974v58.087c9.993-5.545 20.679-8.885 31.045-9.699V13.005c-5.679.459-11.458 1.701-17.162 3.662z"></path></g><!----></svg>