<svg id="eapTJV7Ivyq1" xmlns="http://www.w3.org/2000/svg" xmlns:xlink="http://www.w3.org/1999/xlink" viewBox="0 0 317.201340 163" shape-rendering="geometricPrecision" text-rendering="geometricPrecision"><g id="eapTJV7Ivyq2" transform="matrix(4.09556000000000 0 0 4.09556000000000 -4.30034000000000 92.92489999999999)"><path id="eapTJV7Ivyq3" d="M5.990000,4.200000L5.990000,4.200000L5.990000,4.200000Q7.920000,4.200000,9.030000,5.730000L9.030000,5.730000L9.030000,5.730000Q10.140000,7.250000,10.140000,9.560000L10.140000,9.560000L10.140000,9.560000Q10.140000,11.480000,9.280000,12.980000L9.280000,12.980000L9.280000,12.980000Q8.330000,14.640000,6.610000,15.290000L6.610000,15.290000L6.610000,15.290000Q5.670000,15.640000,4.630000,15.640000L4.630000,15.640000L4.630000,15.640000Q3.600000,15.640000,2.720000,15.400000L2.720000,15.400000L2.720000,15.400000Q1.850000,15.160000,1.460000,14.920000L1.460000,14.920000L1.050000,14.690000L1.050000,14.690000Q1.060000,14.570000,1.360000,12.600000L1.360000,12.600000L1.360000,12.600000Q1.970000,8.480000,1.970000,5.140000L1.970000,5.140000L1.970000,5.140000Q1.970000,4.030000,1.780000,3.570000L1.780000,3.570000L1.780000,3.570000Q3.280000,3.960000,3.650000,4.800000L3.650000,4.800000L3.650000,4.800000Q4.900000,4.200000,5.990000,4.200000ZM4.310000,14.590000L4.310000,14.590000L4.310000,14.590000Q5.530000,14.590000,6.420000,13.800000L6.420000,13.800000L6.420000,13.800000Q7.310000,13.020000,7.710000,11.890000L7.710000,11.890000L7.710000,11.890000Q8.110000,10.750000,8.110000,9.480000L8.110000,9.480000L8.110000,9.480000Q8.110000,7.690000,7.340000,6.550000L7.340000,6.550000L7.340000,6.550000Q6.570000,5.420000,5.260000,5.420000L5.260000,5.420000L5.260000,5.420000Q4.450000,5.420000,3.840000,5.670000L3.840000,5.670000L3.840000,5.670000Q3.840000,6.520000,3.460000,9.970000L3.460000,9.970000L3.460000,9.970000Q3.090000,13.410000,3.090000,14.380000L3.090000,14.380000L3.090000,14.380000Q3.640000,14.590000,4.310000,14.590000ZM10.360000,14.810000L10.360000,14.810000L10.360000,14.810000Q10.360000,14.550000,11.170000,12.820000L11.170000,12.820000L11.170000,12.820000Q11.980000,11.100000,13.010000,8.910000L13.010000,8.910000L13.010000,8.910000Q14.040000,6.720000,14.410000,5.730000L14.410000,5.730000L14.660000,5.040000L14.660000,5.040000Q14.550000,4.840000,14.110000,4.330000L14.110000,4.330000L14.110000,4.330000Q14.620000,4.160000,14.990000,4.160000L14.990000,4.160000L14.990000,4.160000Q15.360000,4.160000,15.600000,4.210000L15.600000,4.210000L15.600000,4.210000Q15.850000,4.270000,16.040000,4.400000L16.040000,4.400000L16.040000,4.400000Q16.230000,4.540000,16.370000,4.680000L16.370000,4.680000L16.370000,4.680000Q16.520000,4.820000,16.650000,5.090000L16.650000,5.090000L16.650000,5.090000Q16.770000,5.360000,16.860000,5.580000L16.860000,5.580000L16.860000,5.580000Q16.940000,5.800000,17.050000,6.190000L17.050000,6.190000L17.050000,6.190000Q17.150000,6.580000,17.210000,6.870000L17.210000,6.870000L17.210000,6.870000Q17.280000,7.150000,17.380000,7.670000L17.380000,7.670000L17.380000,7.670000Q17.490000,8.180000,17.600000,8.650000L17.600000,8.650000L17.600000,8.650000Q17.710000,9.130000,17.990000,10.460000L17.990000,10.460000L17.990000,10.460000Q18.270000,11.800000,18.430000,12.470000L18.430000,12.470000L18.430000,12.470000Q18.590000,13.130000,18.890000,13.960000L18.890000,13.960000L18.890000,13.960000Q19.190000,14.780000,19.530000,15.260000L19.530000,15.260000L19.530000,15.260000Q18.720000,15.650000,18.210000,15.650000L18.210000,15.650000L18.210000,15.650000Q17.710000,15.650000,17.470000,15.390000L17.470000,15.390000L17.470000,15.390000Q17.230000,15.130000,17.070000,14.610000L17.070000,14.610000L17.070000,14.610000Q16.900000,14.080000,16.410000,11.790000L16.410000,11.790000L16.410000,11.790000Q16.090000,12.070000,15.360000,12.100000L15.360000,12.100000L12.960000,12.180000L12.960000,12.180000Q12.110000,14.270000,11.700000,15.890000L11.700000,15.890000L11.700000,15.890000Q10.360000,15.410000,10.360000,14.810000ZM15.300000,6.900000L15.300000,6.900000L15.300000,6.900000Q15.110000,7.350000,14.440000,8.810000L14.440000,8.810000L14.440000,8.810000Q13.780000,10.280000,13.410000,11.140000L13.410000,11.140000L16.280000,11.140000L16.280000,11.140000Q15.620000,8.120000,15.300000,6.900000ZM26.430000,12.800000L26.430000,12.800000L26.430000,12.800000Q25.930000,12.990000,25.650000,12.990000L25.650000,12.990000L25.650000,12.990000Q24.810000,12.990000,24.710000,12.750000L24.710000,12.750000L24.710000,12.750000Q23.310000,9.160000,22.860000,8.120000L22.860000,8.120000L22.860000,8.120000Q22.820000,8.500000,22.640000,9.870000L22.640000,9.870000L22.640000,9.870000Q22.260000,12.560000,22.260000,14.340000L22.260000,14.340000L22.260000,14.340000Q22.260000,14.770000,22.320000,15.500000L22.320000,15.500000L22.320000,15.500000Q21.340000,15.500000,20.990000,15.270000L20.990000,15.270000L20.990000,15.270000Q20.650000,15.040000,20.650000,14.620000L20.650000,14.620000L20.650000,14.620000Q20.650000,14.480000,21.120000,10.810000L21.120000,10.810000L21.120000,10.810000Q21.590000,7.140000,21.590000,5.700000L21.590000,5.700000L21.590000,5.630000L21.590000,5.630000Q21.180000,4.970000,20.730000,4.550000L20.730000,4.550000L20.730000,4.550000Q21.250000,4.190000,21.980000,4.190000L21.980000,4.190000L21.980000,4.190000Q22.900000,4.190000,23.410000,5.050000L23.410000,5.050000L23.410000,5.050000Q23.910000,5.910000,25.380000,9.770000L25.380000,9.770000L26.030000,11.420000L26.030000,11.420000Q26.110000,11.280000,26.280000,11.050000L26.280000,11.050000L26.280000,11.050000Q29.690000,5.990000,29.790000,4.190000L29.790000,4.190000L29.790000,4.190000Q29.790000,4.200000,30.130000,4.220000L30.130000,4.220000L30.130000,4.220000Q30.460000,4.240000,30.850000,4.360000L30.850000,4.360000L30.850000,4.360000Q31.230000,4.480000,31.410000,4.730000L31.410000,4.730000L31.410000,4.730000Q31.580000,4.970000,31.630000,5.200000L31.630000,5.200000L31.630000,5.200000Q31.670000,5.430000,31.670000,5.990000L31.670000,5.990000L31.670000,5.990000Q31.670000,6.540000,31.210000,9.700000L31.210000,9.700000L31.210000,9.700000Q30.740000,12.870000,30.740000,14.130000L30.740000,14.130000L30.740000,14.130000Q30.740000,15.400000,30.940000,15.860000L30.940000,15.860000L30.940000,15.860000Q29.750000,15.550000,29.320000,15.040000L29.320000,15.040000L29.320000,15.040000Q28.880000,14.530000,28.880000,13.620000L28.880000,13.620000L28.880000,13.620000Q28.880000,13.090000,29.170000,11L29.170000,11L29.170000,11Q29.460000,8.920000,29.570000,7.670000L29.570000,7.670000L29.570000,7.670000Q29.010000,8.640000,27.980000,10.320000L27.980000,10.320000L27.980000,10.320000Q26.950000,12,26.740000,12.310000L26.740000,12.310000L26.740000,12.310000Q26.530000,12.630000,26.430000,12.800000ZM38.630000,12.610000L38.630000,12.610000L38.630000,12.610000Q38.920000,10.640000,39.080000,8.820000L39.080000,8.820000L39.080000,8.820000Q39.240000,7,39.240000,5.520000L39.240000,5.520000L39.240000,5.520000Q39.240000,4.030000,39.050000,3.570000L39.050000,3.570000L39.050000,3.570000Q40.540000,3.960000,40.920000,4.800000L40.920000,4.800000L40.920000,4.800000Q42,4.200000,43.200000,4.200000L43.200000,4.200000L43.200000,4.200000Q44.410000,4.200000,45.170000,4.880000L45.170000,4.880000L45.170000,4.880000Q45.930000,5.560000,45.930000,6.530000L45.930000,6.530000L45.930000,6.530000Q45.930000,7.500000,45.230000,8.340000L45.230000,8.340000L45.230000,8.340000Q44.530000,9.170000,43.320000,9.580000L43.320000,9.580000L43.320000,9.580000Q44.300000,9.790000,45.120000,10.520000L45.120000,10.520000L45.120000,10.520000Q45.930000,11.260000,45.930000,12.330000L45.930000,12.330000L45.930000,12.330000Q45.930000,13.990000,44.710000,14.880000L44.710000,14.880000L44.710000,14.880000Q43.480000,15.760000,41.620000,15.760000L41.620000,15.760000L41.620000,15.760000Q39.750000,15.760000,38.320000,14.690000L38.320000,14.690000L38.320000,14.690000Q38.330000,14.570000,38.630000,12.610000ZM43.960000,6.860000L43.960000,6.860000Q43.960000,6.230000,43.570000,5.800000L43.570000,5.800000L43.570000,5.800000Q43.180000,5.380000,42.460000,5.380000L42.460000,5.380000L42.460000,5.380000Q41.750000,5.380000,41.090000,5.670000L41.090000,5.670000L41.090000,5.670000Q41.090000,6.520000,40.720000,9.970000L40.720000,9.970000L40.720000,9.970000Q40.350000,13.410000,40.350000,14.380000L40.350000,14.380000L40.350000,14.380000Q40.960000,14.630000,41.540000,14.630000L41.540000,14.630000L41.540000,14.630000Q42.530000,14.630000,43.180000,13.970000L43.180000,13.970000L43.180000,13.970000Q43.820000,13.310000,43.820000,12.320000L43.820000,12.320000L43.820000,12.320000Q43.820000,11.330000,43.150000,10.660000L43.150000,10.660000L43.150000,10.660000Q42.480000,10,41.270000,9.940000L41.270000,9.940000L41.230000,9.440000L41.230000,9.440000Q42.520000,9.250000,43.240000,8.490000L43.240000,8.490000L43.240000,8.490000Q43.960000,7.730000,43.960000,6.860000L43.960000,6.860000ZM51.830000,8.410000L51.830000,8.410000L51.830000,8.410000Q50.920000,8.410000,50.200000,9.640000L50.200000,9.640000L50.200000,9.640000Q49.490000,10.860000,49.490000,12.080000L49.490000,12.080000L49.490000,12.080000Q49.490000,14.630000,50.810000,14.630000L50.810000,14.630000L50.810000,14.630000Q51.740000,14.630000,52.330000,13.410000L52.330000,13.410000L52.330000,13.410000Q52.920000,12.180000,52.920000,10.650000L52.920000,10.650000L52.920000,10.650000Q52.920000,8.410000,51.830000,8.410000ZM52.700000,7.390000L52.700000,7.390000L52.700000,7.390000Q53.540000,7.390000,54.120000,8.220000L54.120000,8.220000L54.120000,8.220000Q54.710000,9.040000,54.710000,10.430000L54.710000,10.430000L54.710000,10.430000Q54.710000,11.980000,54.080000,13.290000L54.080000,13.290000L54.080000,13.290000Q53.380000,14.760000,52.090000,15.320000L52.090000,15.320000L52.090000,15.320000Q51.370000,15.640000,50.500000,15.640000L50.500000,15.640000L50.500000,15.640000Q49.280000,15.640000,48.380000,14.690000L48.380000,14.690000L48.380000,14.690000Q47.470000,13.750000,47.470000,11.980000L47.470000,11.980000L47.470000,11.980000Q47.470000,10.210000,48.340000,8.860000L48.340000,8.860000L48.340000,8.860000Q49.210000,7.500000,50.640000,7.150000L50.640000,7.150000L50.640000,7.150000Q50.790000,7.150000,50.920000,7.250000L50.920000,7.250000L50.920000,7.250000Q51.060000,7.340000,51.060000,7.430000L51.060000,7.430000L51.060000,7.430000Q49.640000,8.410000,49.360000,10.160000L49.360000,10.160000L49.360000,10.160000Q49.660000,9.380000,50.090000,8.810000L50.090000,8.810000L50.090000,8.810000Q50.510000,8.230000,50.970000,7.940000L50.970000,7.940000L50.970000,7.940000Q51.860000,7.390000,52.700000,7.390000ZM60.470000,8.410000L60.470000,8.410000L60.470000,8.410000Q59.560000,8.410000,58.840000,9.640000L58.840000,9.640000L58.840000,9.640000Q58.130000,10.860000,58.130000,12.080000L58.130000,12.080000L58.130000,12.080000Q58.130000,14.630000,59.440000,14.630000L59.440000,14.630000L59.440000,14.630000Q60.380000,14.630000,60.970000,13.410000L60.970000,13.410000L60.970000,13.410000Q61.560000,12.180000,61.560000,10.650000L61.560000,10.650000L61.560000,10.650000Q61.560000,8.410000,60.470000,8.410000ZM61.330000,7.390000L61.330000,7.390000L61.330000,7.390000Q62.170000,7.390000,62.760000,8.220000L62.760000,8.220000L62.760000,8.220000Q63.350000,9.040000,63.350000,10.430000L63.350000,10.430000L63.350000,10.430000Q63.350000,11.980000,62.720000,13.290000L62.720000,13.290000L62.720000,13.290000Q62.020000,14.760000,60.730000,15.320000L60.730000,15.320000L60.730000,15.320000Q60,15.640000,59.140000,15.640000L59.140000,15.640000L59.140000,15.640000Q57.920000,15.640000,57.020000,14.690000L57.020000,14.690000L57.020000,14.690000Q56.110000,13.750000,56.110000,11.980000L56.110000,11.980000L56.110000,11.980000Q56.110000,10.210000,56.980000,8.860000L56.980000,8.860000L56.980000,8.860000Q57.850000,7.500000,59.280000,7.150000L59.280000,7.150000L59.280000,7.150000Q59.430000,7.150000,59.560000,7.250000L59.560000,7.250000L59.560000,7.250000Q59.700000,7.340000,59.700000,7.430000L59.700000,7.430000L59.700000,7.430000Q58.280000,8.410000,58,10.160000L58,10.160000L58,10.160000Q58.300000,9.380000,58.720000,8.810000L58.720000,8.810000L58.720000,8.810000Q59.150000,8.230000,59.610000,7.940000L59.610000,7.940000L59.610000,7.940000Q60.490000,7.390000,61.330000,7.390000ZM69.720000,7.320000L69.720000,7.320000L69.720000,7.320000Q70.460000,7.320000,70.980000,7.870000L70.980000,7.870000L70.980000,7.870000Q71.500000,8.410000,71.500000,9.270000L71.500000,9.270000L71.500000,9.270000Q71.500000,10.120000,71.020000,10.730000L71.020000,10.730000L71.020000,10.730000Q70.530000,11.340000,69.660000,11.680000L69.660000,11.680000L69.830000,12.190000L69.830000,12.190000Q70.290000,13.640000,71.180000,15.050000L71.180000,15.050000L71.180000,15.050000Q72.060000,16.460000,72.600000,16.980000L72.600000,16.980000L72.600000,16.980000Q72.100000,17.110000,71.710000,17.110000L71.710000,17.110000L71.710000,17.110000Q70.290000,17.110000,69.230000,15.050000L69.230000,15.050000L69.230000,15.050000Q68.810000,14.240000,68,12.010000L68,12.010000L68,12.010000Q67.820000,12.030000,67.470000,12.030000L67.470000,12.030000L67.470000,12.030000Q67.380000,11.960000,67.380000,11.580000L67.380000,11.580000L67.380000,11.580000Q68.030000,11.560000,68.530000,11.350000L68.530000,11.350000L68.530000,11.350000Q69.030000,11.140000,69.310000,10.810000L69.310000,10.810000L69.310000,10.810000Q69.850000,10.120000,69.850000,9.370000L69.850000,9.370000L69.850000,9.370000Q69.850000,8.990000,69.690000,8.740000L69.690000,8.740000L69.690000,8.740000Q69.520000,8.500000,69.230000,8.500000L69.230000,8.500000L69.230000,8.500000Q68.710000,8.500000,68.170000,9.240000L68.170000,9.240000L68.170000,9.240000Q67.630000,9.980000,67.260000,11.300000L67.260000,11.300000L67.260000,11.300000Q66.890000,12.630000,66.890000,13.780000L66.890000,13.780000L66.890000,13.780000Q66.890000,14.940000,66.980000,15.430000L66.980000,15.430000L66.980000,15.430000Q66.530000,15.460000,66.390000,15.460000L66.390000,15.460000L66.390000,15.460000Q65.590000,15.460000,65.240000,15.180000L65.240000,15.180000L65.240000,15.180000Q64.890000,14.910000,64.890000,14.310000L64.890000,14.310000L64.890000,14.310000Q64.890000,13.710000,65.140000,12.010000L65.140000,12.010000L65.140000,12.010000Q65.880000,6.800000,65.880000,4.100000L65.880000,4.100000L65.880000,4.100000Q65.880000,2.880000,65.720000,2.460000L65.720000,2.460000L65.720000,2.460000Q66.770000,2.740000,67.150000,3.310000L67.150000,3.310000L67.150000,3.310000Q67.540000,3.880000,67.540000,4.910000L67.540000,4.910000L67.540000,4.910000Q67.540000,5.610000,67.260000,7.850000L67.260000,7.850000L67.260000,7.850000Q66.990000,10.090000,66.890000,11.100000L66.890000,11.100000L66.890000,11.100000Q67.400000,8.230000,68.950000,7.500000L68.950000,7.500000L68.950000,7.500000Q69.340000,7.320000,69.720000,7.320000ZM76.060000,8.180000L76.060000,8.180000L76.060000,8.180000Q75.670000,8.180000,75.360000,8.440000L75.360000,8.440000L75.360000,8.440000Q75.050000,8.690000,75.050000,9.170000L75.050000,9.170000L75.050000,9.170000Q75.050000,9.650000,75.380000,10.070000L75.380000,10.070000L75.380000,10.070000Q75.710000,10.490000,76.190000,10.800000L76.190000,10.800000L76.190000,10.800000Q76.660000,11.120000,77.150000,11.450000L77.150000,11.450000L77.150000,11.450000Q77.630000,11.770000,77.990000,12.260000L77.990000,12.260000L77.990000,12.260000Q78.360000,12.740000,78.400000,13.330000L78.400000,13.330000L78.400000,13.330000Q78.400000,14.340000,77.530000,15.020000L77.530000,15.020000L77.530000,15.020000Q76.660000,15.710000,75.380000,15.710000L75.380000,15.710000L75.380000,15.710000Q74.090000,15.710000,73.350000,15.190000L73.350000,15.190000L73.350000,15.190000Q72.620000,14.670000,72.620000,14L72.620000,14L72.620000,14Q72.620000,13.330000,73.030000,12.920000L73.030000,12.920000L73.030000,12.920000Q73.440000,12.500000,74.060000,12.500000L74.060000,12.500000L74.060000,12.500000Q74.380000,12.500000,74.660000,12.610000L74.660000,12.610000L74.660000,12.610000Q74.210000,13.090000,74.210000,13.620000L74.210000,13.620000L74.210000,13.620000Q74.210000,14.150000,74.510000,14.480000L74.510000,14.480000L74.510000,14.480000Q74.800000,14.800000,75.310000,14.800000L75.310000,14.800000L75.310000,14.800000Q75.810000,14.800000,76.150000,14.540000L76.150000,14.540000L76.150000,14.540000Q76.500000,14.280000,76.500000,13.870000L76.500000,13.870000L76.500000,13.870000Q76.500000,13.450000,76.260000,13.130000L76.260000,13.130000L76.260000,13.130000Q76.020000,12.810000,75.660000,12.570000L75.660000,12.570000L75.660000,12.570000Q75.310000,12.320000,74.890000,12.010000L74.890000,12.010000L74.890000,12.010000Q74.470000,11.700000,74.110000,11.390000L74.110000,11.390000L74.110000,11.390000Q73.750000,11.070000,73.510000,10.590000L73.510000,10.590000L73.510000,10.590000Q73.280000,10.110000,73.280000,9.530000L73.280000,9.530000L73.280000,9.530000Q73.280000,8.540000,74.090000,7.900000L74.090000,7.900000L74.090000,7.900000Q74.910000,7.270000,76.140000,7.270000L76.140000,7.270000L76.140000,7.270000Q77.360000,7.270000,77.930000,7.740000L77.930000,7.740000L77.930000,7.740000Q78.500000,8.220000,78.500000,8.860000L78.500000,8.860000L78.500000,8.860000Q78.500000,9.490000,78.100000,9.940000L78.100000,9.940000L78.100000,9.940000Q77.700000,10.390000,77.070000,10.390000L77.070000,10.390000L77.070000,10.390000Q76.760000,10.390000,76.370000,10.260000L76.370000,10.260000L76.370000,10.260000Q76.680000,10,76.850000,9.650000L76.850000,9.650000L76.850000,9.650000Q77.010000,9.310000,77.010000,8.970000L77.010000,8.970000L77.010000,8.970000Q77.010000,8.640000,76.730000,8.410000L76.730000,8.410000L76.730000,8.410000Q76.450000,8.180000,76.060000,8.180000Z" fill="rgb(0,0,0)" stroke="none" stroke-width="1"/></g><g id="eapTJV7Ivyq4" transform="matrix(2.81250000000000 0 0 2.81250000000000 114 0)"><path id="eapTJV7Ivyq5" d="M0,32L32,32L32,0L0,0L0,32ZM19.377000,12.508000L26.313000,5.572000L26.313000,26.427000L19.377000,26.427000L19.377000,12.508000ZM5.688000,5.572000L12.624000,12.508000L12.624000,26.427000L5.688000,26.427000L5.688000,5.572000Z" fill="rgb(0,0,0)" stroke="none" stroke-width="1"/></g></svg>