<svg data-v-423bf9ae="" xmlns="http://www.w3.org/2000/svg" viewBox="0 0 550.2383604001686 163" class="iconAbove"><!----><!----><!----><g data-v-423bf9ae="" id="95bab599-3436-4e52-bdc6-67e4fdc2cbac" fill="white" transform="matrix(5.71973320392212,0,0,5.71973320392212,-1.2011483394897482,80.97902627986463)"><path d="M9.97 8.72L9.97 8.72L9.97 8.72Q9.97 9.56 9.70 10.31L9.70 10.31L9.70 10.31Q9.43 11.05 8.96 11.66L8.96 11.66L8.96 11.66Q8.49 12.26 7.85 12.71L7.85 12.71L7.85 12.71Q7.22 13.17 6.49 13.47L6.49 13.47L6.49 13.47Q5.02 14.08 3.39 14.08L3.39 14.08L1.19 14.08L1.19 14.08Q1.71 13.54 1.71 12.13L1.71 12.13L1.71 5.17L0.21 5.17L0.21 5.17Q0.31 5.15 0.67 4.83L0.67 4.83L0.67 4.83Q1.35 4.25 1.53 4.25L1.53 4.25L4.57 4.24L4.57 4.24Q6.84 4.24 8.31 5.26L8.31 5.26L8.31 5.26Q9.97 6.42 9.97 8.72ZM8.41 11.26L8.41 11.26L8.41 11.26Q8.65 10.60 8.65 9.71L8.65 9.71L8.65 9.71Q8.65 8.82 8.47 8.14L8.47 8.14L8.47 8.14Q8.29 7.46 7.94 6.96L7.94 6.96L7.94 6.96Q7.60 6.46 7.11 6.12L7.11 6.12L7.11 6.12Q6.62 5.78 6.00 5.56L6.00 5.56L6.00 5.56Q4.82 5.17 3.04 5.17L3.04 5.17L3.04 11.76L3.04 11.76Q3.04 12.46 2.83 12.82L2.83 12.82L2.83 12.82Q2.74 12.97 2.60 13.17L2.60 13.17L4.87 13.17L4.87 13.17Q7.72 13.17 8.41 11.26ZM11.33 13.16L11.33 13.16L11.33 13.16Q11.38 13.15 11.87 13.15L11.87 13.15L11.87 13.15Q12.73 13.15 13.14 13.02L13.14 13.02L13.14 13.02Q13.54 12.89 13.72 12.78L13.72 12.78L13.72 12.78Q13.47 12.97 13.25 13.14L13.25 13.14L13.25 13.14Q12.80 13.49 12.52 13.65L12.52 13.65L12.52 13.65Q12.24 13.81 11.97 13.89L11.97 13.89L11.97 13.89Q11.70 13.98 11.41 14.02L11.41 14.02L11.41 14.02Q10.99 14.08 10.25 14.08L10.25 14.08L9.99 14.08L9.99 14.08Q9.99 14.08 10.00 14.07L10.00 14.07L10.00 14.07Q10.00 14.06 10.09 13.96L10.09 13.96L10.09 13.96Q10.19 13.86 10.36 13.66L10.36 13.66L10.36 13.66Q10.54 13.47 10.83 13.08L10.83 13.08L10.83 13.08Q11.13 12.69 11.47 12.07L11.47 12.07L11.47 12.07Q11.82 11.46 12.12 10.82L12.12 10.82L12.12 10.82Q12.41 10.18 12.69 9.52L12.69 9.52L12.69 9.52Q12.96 8.87 13.25 8.21L13.25 8.21L13.25 8.21Q13.54 7.55 13.84 6.87L13.84 6.87L13.84 6.87Q14.14 6.20 14.30 5.82L14.30 5.82L14.30 5.82Q14.45 5.43 14.48 5.34L14.48 5.34L14.48 5.34Q14.50 5.24 14.55 5.17L14.55 5.17L14.03 5.17L14.03 5.17Q12.76 5.17 12.06 5.46L12.06 5.46L12.06 5.46Q13.00 4.64 13.64 4.43L13.64 4.43L13.64 4.43Q14.22 4.25 15.52 4.25L15.52 4.25L15.89 4.25L15.89 4.25Q16.18 5.22 16.48 6.23L16.48 6.23L16.48 6.23Q16.78 7.23 17.08 8.24L17.08 8.24L17.08 8.24Q17.73 10.42 18.06 11.41L18.06 11.41L18.06 11.41Q18.40 12.39 18.45 12.58L18.45 12.58L18.45 12.58Q18.51 12.77 18.60 12.92L18.60 12.92L18.60 12.92Q18.80 13.25 19.24 13.25L19.24 13.25L19.24 13.25Q19.48 13.25 19.74 13.14L19.74 13.14L19.74 13.14Q20.00 13.03 20.15 12.94L20.15 12.94L20.15 12.94Q19.90 13.13 19.71 13.28L19.71 13.28L19.71 13.28Q19.22 13.65 19.08 13.74L19.08 13.74L19.08 13.74Q18.94 13.82 18.81 13.90L18.81 13.90L18.81 13.90Q18.67 13.99 18.52 14.05L18.52 14.05L18.52 14.05Q17.56 14.48 17.23 13.73L17.23 13.73L17.23 13.73Q16.99 13.21 16.65 12.05L16.65 12.05L16.65 12.05Q16.32 10.89 16.06 10.08L16.06 10.08L16.06 10.08Q15.48 10.49 13.56 10.46L13.56 10.46L13.56 10.46Q13.31 10.46 13.13 10.46L13.13 10.46L13.13 10.46Q12.36 12.00 11.63 12.82L11.63 12.82L11.63 12.82Q11.57 12.89 11.50 12.96L11.50 12.96L11.50 12.96Q11.33 13.17 11.33 13.16ZM13.67 9.51L13.67 9.51L15.02 9.54L15.02 9.54Q15.44 9.54 15.88 9.51L15.88 9.51L15.88 9.51Q15.57 8.51 14.94 6.45L14.94 6.45L14.94 6.45Q14.27 8.00 13.57 9.53L13.57 9.53L13.57 9.53Q13.65 9.51 13.67 9.51ZM33.27 11.58L33.27 11.58L33.27 11.58Q33.27 12.60 32.92 13.15L32.92 13.15L34.95 13.15L34.95 13.15Q34.82 13.19 34.64 13.34L34.64 13.34L34.64 13.34Q34.47 13.49 34.29 13.65L34.29 13.65L34.29 13.65Q33.80 14.08 33.61 14.08L33.61 14.08L31.58 14.08L31.58 14.08Q31.92 13.58 31.92 12.70L31.92 12.70L31.92 12.70Q31.92 11.83 31.88 11.02L31.88 11.02L31.88 11.02Q31.83 10.21 31.81 9.63L31.81 9.63L31.81 9.63Q31.78 9.04 31.76 8.66L31.76 8.66L31.76 8.66Q31.75 8.28 31.73 7.89L31.73 7.89L31.73 7.89Q31.68 6.75 31.66 6.38L31.66 6.38L31.66 6.38Q31.05 7.44 30.42 8.58L30.42 8.58L30.42 8.58Q29.78 9.71 29.33 10.50L29.33 10.50L29.33 10.50Q28.88 11.29 28.62 11.80L28.62 11.80L28.62 11.80Q28.36 12.31 28.06 12.82L28.06 12.82L28.06 12.82Q28 12.92 27.41 13.30L27.41 13.30L27.41 13.30Q26.82 13.69 26.74 13.75L26.74 13.75L26.74 13.75Q26.36 12.60 25.79 11.61L25.79 11.61L25.79 11.61Q25.22 10.62 24.86 10.02L24.86 10.02L24.86 10.02Q24.49 9.43 24.13 8.83L24.13 8.83L23.04 7.02L23.04 7.02Q22.75 10.55 22.60 11.34L22.60 11.34L22.60 11.34Q22.44 12.13 22.30 12.53L22.30 12.53L22.30 12.53Q22.16 12.93 21.95 13.15L21.95 13.15L24.14 13.15L24.14 13.15Q23.00 14.08 22.81 14.08L22.81 14.08L20.56 14.08L20.56 14.08Q20.96 13.69 21.23 12.35L21.23 12.35L21.23 12.35Q21.53 10.86 21.93 5.17L21.93 5.17L20.21 5.17L20.21 5.17Q20.71 4.68 21.40 4.30L21.40 4.30L21.40 4.30Q21.49 4.25 21.54 4.25L21.54 4.25L23.26 4.25L23.26 4.25Q23.84 5.20 24.40 6.14L24.40 6.14L25.54 8.03L25.54 8.03Q25.83 8.51 26.12 8.99L26.12 8.99L26.12 8.99Q26.41 9.46 26.69 9.94L26.69 9.94L26.69 9.94Q27.37 11.11 27.72 11.92L27.72 11.92L27.72 11.92Q28.37 10.78 29.25 9.17L29.25 9.17L29.25 9.17Q30.82 6.28 31.58 4.97L31.58 4.97L31.58 4.97Q31.71 4.76 32.59 4.24L32.59 4.24L32.59 4.24Q32.79 4.12 32.91 4.04L32.91 4.04L32.91 4.04Q33.07 7.03 33.14 8.78L33.14 8.78L33.14 8.78Q33.22 10.53 33.24 10.88L33.24 10.88L33.24 10.88Q33.27 11.22 33.27 11.58ZM51.84 11.58L51.84 11.58L51.84 11.58Q51.84 12.60 51.49 13.15L51.49 13.15L53.51 13.15L53.51 13.15Q53.38 13.19 53.21 13.34L53.21 13.34L53.21 13.34Q53.04 13.49 52.86 13.65L52.86 13.65L52.86 13.65Q52.37 14.08 52.18 14.08L52.18 14.08L50.15 14.08L50.15 14.08Q50.49 13.58 50.49 12.70L50.49 12.70L50.49 12.70Q50.49 11.83 50.45 11.02L50.45 11.02L50.45 11.02Q50.40 10.21 50.37 9.63L50.37 9.63L50.37 9.63Q50.35 9.04 50.33 8.66L50.33 8.66L50.33 8.66Q50.31 8.28 50.30 7.89L50.30 7.89L50.30 7.89Q50.24 6.75 50.22 6.38L50.22 6.38L50.22 6.38Q49.62 7.44 48.98 8.58L48.98 8.58L48.98 8.58Q48.35 9.71 47.90 10.50L47.90 10.50L47.90 10.50Q47.45 11.29 47.19 11.80L47.19 11.80L47.19 11.80Q46.92 12.31 46.63 12.82L46.63 12.82L46.63 12.82Q46.57 12.92 45.98 13.30L45.98 13.30L45.98 13.30Q45.39 13.69 45.30 13.75L45.30 13.75L45.30 13.75Q44.93 12.60 44.36 11.61L44.36 11.61L44.36 11.61Q43.79 10.62 43.42 10.02L43.42 10.02L43.42 10.02Q43.05 9.43 42.70 8.83L42.70 8.83L41.61 7.02L41.61 7.02Q41.32 10.55 41.16 11.34L41.16 11.34L41.16 11.34Q41.01 12.13 40.87 12.53L40.87 12.53L40.87 12.53Q40.73 12.93 40.52 13.15L40.52 13.15L42.70 13.15L42.70 13.15Q41.57 14.08 41.38 14.08L41.38 14.08L39.13 14.08L39.13 14.08Q39.53 13.69 39.79 12.35L39.79 12.35L39.79 12.35Q40.09 10.86 40.50 5.17L40.50 5.17L38.78 5.17L38.78 5.17Q39.28 4.68 39.96 4.30L39.96 4.30L39.96 4.30Q40.06 4.25 40.11 4.25L40.11 4.25L41.83 4.25L41.83 4.25Q42.40 5.20 42.97 6.14L42.97 6.14L44.11 8.03L44.11 8.03Q44.39 8.51 44.69 8.99L44.69 8.99L44.69 8.99Q44.98 9.46 45.26 9.94L45.26 9.94L45.26 9.94Q45.94 11.11 46.29 11.92L46.29 11.92L46.29 11.92Q46.94 10.78 47.82 9.17L47.82 9.17L47.82 9.17Q49.38 6.28 50.15 4.97L50.15 4.97L50.15 4.97Q50.28 4.76 51.16 4.24L51.16 4.24L51.16 4.24Q51.36 4.12 51.47 4.04L51.47 4.04L51.47 4.04Q51.64 7.03 51.71 8.78L51.71 8.78L51.71 8.78Q51.78 10.53 51.81 10.88L51.81 10.88L51.81 10.88Q51.84 11.22 51.84 11.58ZM54.63 13.16L54.63 13.16L54.63 13.16Q54.68 13.15 55.18 13.15L55.18 13.15L55.18 13.15Q56.03 13.15 56.44 13.02L56.44 13.02L56.44 13.02Q56.85 12.89 57.03 12.78L57.03 12.78L57.03 12.78Q56.77 12.97 56.56 13.14L56.56 13.14L56.56 13.14Q56.10 13.49 55.83 13.65L55.83 13.65L55.83 13.65Q55.55 13.81 55.28 13.89L55.28 13.89L55.28 13.89Q55.00 13.98 54.71 14.02L54.71 14.02L54.71 14.02Q54.29 14.08 53.56 14.08L53.56 14.08L53.29 14.08L53.29 14.08Q53.30 14.08 53.30 14.07L53.30 14.07L53.30 14.07Q53.31 14.06 53.40 13.96L53.40 13.96L53.40 13.96Q53.49 13.86 53.67 13.66L53.67 13.66L53.67 13.66Q53.85 13.47 54.14 13.08L54.14 13.08L54.14 13.08Q54.43 12.69 54.78 12.07L54.78 12.07L54.78 12.07Q55.13 11.46 55.42 10.82L55.42 10.82L55.42 10.82Q55.72 10.18 55.99 9.52L55.99 9.52L55.99 9.52Q56.27 8.87 56.56 8.21L56.56 8.21L56.56 8.21Q56.85 7.55 57.15 6.87L57.15 6.87L57.15 6.87Q57.45 6.20 57.60 5.82L57.60 5.82L57.60 5.82Q57.76 5.43 57.78 5.34L57.78 5.34L57.78 5.34Q57.80 5.24 57.86 5.17L57.86 5.17L57.34 5.17L57.34 5.17Q56.07 5.17 55.36 5.46L55.36 5.46L55.36 5.46Q56.31 4.64 56.94 4.43L56.94 4.43L56.94 4.43Q57.52 4.25 58.83 4.25L58.83 4.25L59.19 4.25L59.19 4.25Q59.49 5.22 59.78 6.23L59.78 6.23L59.78 6.23Q60.08 7.23 60.38 8.24L60.38 8.24L60.38 8.24Q61.04 10.42 61.37 11.41L61.37 11.41L61.37 11.41Q61.70 12.39 61.76 12.58L61.76 12.58L61.76 12.58Q61.82 12.77 61.91 12.92L61.91 12.92L61.91 12.92Q62.10 13.25 62.54 13.25L62.54 13.25L62.54 13.25Q62.78 13.25 63.04 13.14L63.04 13.14L63.04 13.14Q63.31 13.03 63.45 12.94L63.45 12.94L63.45 12.94Q63.21 13.13 63.01 13.28L63.01 13.28L63.01 13.28Q62.52 13.65 62.38 13.74L62.38 13.74L62.38 13.74Q62.25 13.82 62.11 13.90L62.11 13.90L62.11 13.90Q61.97 13.99 61.82 14.05L61.82 14.05L61.82 14.05Q60.87 14.48 60.53 13.73L60.53 13.73L60.53 13.73Q60.29 13.21 59.96 12.05L59.96 12.05L59.96 12.05Q59.62 10.89 59.36 10.08L59.36 10.08L59.36 10.08Q58.79 10.49 56.86 10.46L56.86 10.46L56.86 10.46Q56.62 10.46 56.44 10.46L56.44 10.46L56.44 10.46Q55.67 12.00 54.93 12.82L54.93 12.82L54.93 12.82Q54.87 12.89 54.81 12.96L54.81 12.96L54.81 12.96Q54.63 13.17 54.63 13.16ZM56.97 9.51L56.97 9.51L58.32 9.54L58.32 9.54Q58.75 9.54 59.19 9.51L59.19 9.51L59.19 9.51Q58.87 8.51 58.25 6.45L58.25 6.45L58.25 6.45Q57.57 8.00 56.88 9.53L56.88 9.53L56.88 9.53Q56.96 9.51 56.97 9.51ZM72.69 11.74L72.69 11.74L72.69 11.74Q72.85 9.92 72.85 8.29L72.85 8.29L72.85 8.29Q72.85 6.66 72.72 5.17L72.72 5.17L71.50 5.17L71.50 5.17Q71.59 5.11 71.77 4.96L71.77 4.96L71.77 4.96Q71.96 4.81 72.17 4.65L72.17 4.65L72.17 4.65Q72.69 4.25 72.83 4.25L72.83 4.25L75.41 4.25L75.41 4.25Q75.26 4.29 74.95 4.57L74.95 4.57L74.95 4.57Q74.63 4.85 74.46 4.99L74.46 4.99L74.46 4.99Q74.29 5.13 74.12 5.17L74.12 5.17L74.12 5.17Q74.13 5.33 74.13 5.50L74.13 5.50L74.13 5.50Q74.13 5.66 74.13 5.82L74.13 5.82L74.11 7.35L74.11 7.35Q74.11 9.86 73.57 12.67L73.57 12.67L73.57 12.67Q73.55 12.74 73.54 12.83L73.54 12.83L73.54 12.83Q73.53 12.93 73.51 13.03L73.51 13.03L73.51 13.03Q73.47 13.27 73.42 13.37L73.42 13.37L73.42 13.37Q73.38 13.48 73.24 13.61L73.24 13.61L73.24 13.61Q73.10 13.75 72.94 13.88L72.94 13.88L72.94 13.88Q72.75 14.04 72.36 14.31L72.36 14.31L72.36 14.31Q72.28 13.80 71.77 13.17L71.77 13.17L71.77 13.17Q69.33 10.12 66.27 6.72L66.27 6.72L66.27 10.09L66.27 10.09Q66.27 12.09 65.96 12.68L65.96 12.68L65.96 12.68Q65.79 12.99 65.65 13.15L65.65 13.15L67.85 13.15L67.85 13.15Q67.77 13.21 67.58 13.37L67.58 13.37L67.58 13.37Q67.40 13.52 67.19 13.69L67.19 13.69L67.19 13.69Q66.67 14.08 66.53 14.08L66.53 14.08L64.28 14.08L64.28 14.08Q64.87 13.23 64.95 11.85L64.95 11.85L64.95 11.85Q64.98 11.46 64.98 9.68L64.98 9.68L64.98 9.68Q64.98 7.90 64.83 5.17L64.83 5.17L63.27 5.17L63.27 5.17Q63.36 5.11 63.54 4.96L63.54 4.96L63.54 4.96Q63.73 4.81 63.94 4.65L63.94 4.65L63.94 4.65Q64.46 4.25 64.60 4.25L64.60 4.25L67.18 4.25L67.18 4.25Q67.00 4.31 66.82 4.48L66.82 4.48L66.82 4.48Q66.64 4.65 66.58 4.70L66.58 4.70L66.58 4.70Q68.41 6.64 69.70 8.17L69.70 8.17L69.70 8.17Q70.99 9.70 71.57 10.37L71.57 10.37L71.57 10.37Q72.14 11.03 72.69 11.74ZM83.59 8.89L86.39 8.89L86.39 8.89Q86.32 8.91 86.03 9.14L86.03 9.14L86.03 9.14Q85.74 9.37 85.54 9.54L85.54 9.54L85.54 11.92L85.54 11.92Q84.75 12.93 83.31 13.63L83.31 13.63L83.31 13.63Q81.86 14.34 80.70 14.34L80.70 14.34L80.70 14.34Q79.54 14.34 78.70 14.00L78.70 14.00L78.70 14.00Q77.86 13.65 77.27 13.04L77.27 13.04L77.27 13.04Q76.08 11.79 76.08 9.73L76.08 9.73L76.08 9.73Q76.08 8.21 76.64 7.26L76.64 7.26L76.64 7.26Q77.45 5.81 79.15 4.83L79.15 4.83L79.15 4.83Q80.83 3.85 82.52 3.85L82.52 3.85L82.52 3.85Q83.67 3.85 84.85 4.20L84.85 4.20L84.85 4.20Q85.31 4.34 85.62 4.54L85.62 4.54L85.62 4.54Q85.69 4.59 85.69 4.64L85.69 4.64L85.69 4.64Q85.69 4.70 85.58 4.80L85.58 4.80L85.58 4.80Q85.47 4.89 85.30 5.02L85.30 5.02L85.30 5.02Q85.13 5.15 84.94 5.28L84.94 5.28L84.94 5.28Q84.74 5.42 84.56 5.54L84.56 5.54L84.56 5.54Q84.20 5.78 84.08 5.83L84.08 5.83L84.08 5.83Q84.09 5.81 84.13 5.78L84.13 5.78L84.13 5.78Q84.17 5.74 84.22 5.70L84.22 5.70L84.22 5.70Q84.33 5.59 84.33 5.52L84.33 5.52L84.33 5.52Q84.33 5.26 83.40 5.02L83.40 5.02L83.40 5.02Q82.40 4.77 81.27 4.77L81.27 4.77L81.27 4.77Q80.14 4.77 79.44 5.04L79.44 5.04L79.44 5.04Q78.74 5.32 78.29 5.84L78.29 5.84L78.29 5.84Q77.42 6.85 77.42 8.85L77.42 8.85L77.42 8.85Q77.42 10.78 78.57 12.06L78.57 12.06L78.57 12.06Q79.76 13.40 81.67 13.40L81.67 13.40L81.67 13.40Q82.82 13.40 83.70 13.10L83.70 13.10L83.70 13.10Q84.03 12.98 84.23 12.80L84.23 12.80L84.23 9.83L82.26 9.83L82.52 9.61L82.52 9.61Q83.41 8.89 83.59 8.89L83.59 8.89ZM87.60 13.16L87.60 13.16L87.60 13.16Q87.64 13.15 88.14 13.15L88.14 13.15L88.14 13.15Q89.00 13.15 89.40 13.02L89.40 13.02L89.40 13.02Q89.81 12.89 89.99 12.78L89.99 12.78L89.99 12.78Q89.74 12.97 89.52 13.14L89.52 13.14L89.52 13.14Q89.07 13.49 88.79 13.65L88.79 13.65L88.79 13.65Q88.51 13.81 88.24 13.89L88.24 13.89L88.24 13.89Q87.96 13.98 87.68 14.02L87.68 14.02L87.68 14.02Q87.25 14.08 86.52 14.08L86.52 14.08L86.26 14.08L86.26 14.08Q86.26 14.08 86.27 14.07L86.27 14.07L86.27 14.07Q86.27 14.06 86.36 13.96L86.36 13.96L86.36 13.96Q86.45 13.86 86.63 13.66L86.63 13.66L86.63 13.66Q86.81 13.47 87.10 13.08L87.10 13.08L87.10 13.08Q87.40 12.69 87.74 12.07L87.74 12.07L87.74 12.07Q88.09 11.46 88.39 10.82L88.39 10.82L88.39 10.82Q88.68 10.18 88.96 9.52L88.96 9.52L88.96 9.52Q89.23 8.87 89.52 8.21L89.52 8.21L89.52 8.21Q89.81 7.55 90.11 6.87L90.11 6.87L90.11 6.87Q90.41 6.20 90.57 5.82L90.57 5.82L90.57 5.82Q90.72 5.43 90.74 5.34L90.74 5.34L90.74 5.34Q90.77 5.24 90.82 5.17L90.82 5.17L90.30 5.17L90.30 5.17Q89.03 5.17 88.33 5.46L88.33 5.46L88.33 5.46Q89.27 4.64 89.91 4.43L89.91 4.43L89.91 4.43Q90.49 4.25 91.79 4.25L91.79 4.25L92.16 4.25L92.16 4.25Q92.45 5.22 92.75 6.23L92.75 6.23L92.75 6.23Q93.04 7.23 93.34 8.24L93.34 8.24L93.34 8.24Q94.00 10.42 94.33 11.41L94.33 11.41L94.33 11.41Q94.66 12.39 94.72 12.58L94.72 12.58L94.72 12.58Q94.78 12.77 94.87 12.92L94.87 12.92L94.87 12.92Q95.07 13.25 95.50 13.25L95.50 13.25L95.50 13.25Q95.74 13.25 96.01 13.14L96.01 13.14L96.01 13.14Q96.27 13.03 96.41 12.94L96.41 12.94L96.41 12.94Q96.17 13.13 95.98 13.28L95.98 13.28L95.98 13.28Q95.48 13.65 95.35 13.74L95.35 13.74L95.35 13.74Q95.21 13.82 95.07 13.90L95.07 13.90L95.07 13.90Q94.94 13.99 94.79 14.05L94.79 14.05L94.79 14.05Q93.83 14.48 93.50 13.73L93.50 13.73L93.50 13.73Q93.26 13.21 92.92 12.05L92.92 12.05L92.92 12.05Q92.59 10.89 92.33 10.08L92.33 10.08L92.33 10.08Q91.75 10.49 89.82 10.46L89.82 10.46L89.82 10.46Q89.58 10.46 89.40 10.46L89.40 10.46L89.40 10.46Q88.63 12.00 87.90 12.82L87.90 12.82L87.90 12.82Q87.83 12.89 87.77 12.96L87.77 12.96L87.77 12.96Q87.60 13.17 87.60 13.16ZM89.93 9.51L89.93 9.51L91.29 9.54L91.29 9.54Q91.71 9.54 92.15 9.51L92.15 9.51L92.15 9.51Q91.83 8.51 91.21 6.45L91.21 6.45L91.21 6.45Q90.54 8.00 89.84 9.53L89.84 9.53L89.84 9.53Q89.92 9.51 89.93 9.51Z"></path></g><!----><g data-v-423bf9ae="" id="dd89a5c1-069b-4b6f-9304-d306ada8cd22" transform="matrix(1.198242446102869,0,0,1.198242446102869,214.89611833193183,-15.578143034254857)" stroke="none" fill="white"><path d="M49.569 22.967c-9.975-5.691-20.677-9.125-31.045-9.962v58.351c10.367.814 21.05 4.154 31.045 9.699V22.967z"></path><path d="M49.229 84.073c.814.278 1.671.29 2.485.012 11.657-5.043 23.865-7.313 35.798-6.79V19.524a67.09 67.09 0 0 0-3.24-.055v53.594l-.852.056c-10.672.697-21.732 4.177-32.021 10.048a2.826 2.826 0 0 1-1.83 0c-10.29-5.871-21.349-9.351-32.021-10.048l-.854-.056V19.469a65.788 65.788 0 0 0-3.239.055v57.771c11.932-.524 24.114 1.735 35.774 6.778z"></path><path d="M92.579 26.009c-1.07-.149-2.157-.228-3.237-.335v53.55l-.968-.056c-12.195-.699-25.06 1.777-36.975 7.065l-.916.381-.915-.381c-11.917-5.288-24.781-7.765-36.976-7.065l-.967.056v-53.55c-1.081.108-2.168.187-3.238.335v58.707a4.876 4.876 0 0 1 1.044.748c12.951-1.75 26.393-1.536 39.18 2.651a19.022 19.022 0 0 1 1.873-.095c.661 0 1.285.037 1.872.095 12.785-4.188 26.229-4.401 39.179-2.651 0 0 .474-.462 1.044-.748V26.009z"></path><path d="M65.283 16.667v20.625l-3.98-4.738-4.195 4.738V19.994a83.542 83.542 0 0 0-5.708 2.974v58.087c9.993-5.545 20.679-8.885 31.045-9.699V13.005c-5.679.459-11.458 1.701-17.162 3.662z"></path></g><!----></svg>