<svg xmlns="http://www.w3.org/2000/svg" viewBox="0 0 227.23 307.02" style="" width="180" height="180"><defs><style>.cls-1{fill:#fff;}.cls-2{fill:#be1e2d;}.cls-3,.cls-4,.cls-7,.cls-8{fill:none;stroke-miterlimit:10;}.cls-3{stroke:#fff;stroke-linecap:round;stroke-width:3px;}.cls-4{stroke:#1b75bc;}.cls-4,.cls-7,.cls-8{stroke-width:2px;}.cls-5{fill:#1b75bc;}.cls-6{fill:#39b54a;}.cls-7{stroke:#39b54a;}.cls-8{stroke:#be1e2d;}</style></defs><title>Asset 8</title><g id="Layer_2" data-name="Layer 2"><g id="Layer_1-2" data-name="Layer 1"><path class="cls-1 MbeCOZFY_0" d="M47.86,267.9l4.58,1.76a14.64,14.64,0,0,1-2.21,3,14.07,14.07,0,0,1-2.72,2.28,12.35,12.35,0,0,1-6.58,2,12.41,12.41,0,0,1-9.72-4.72,17.7,17.7,0,0,1,0-22.56,12.24,12.24,0,0,1,9.72-4.72,11.9,11.9,0,0,1,5.38,1.24,14.51,14.51,0,0,1,4.41,3.48l-3.31,3.76a8.32,8.32,0,0,0-13,0,12.05,12.05,0,0,0,0,15.08,8.42,8.42,0,0,0,10.34,2.16A9.92,9.92,0,0,0,47.86,267.9Zm-6.93-9.68H52.44l-4.58,5.32H40.93Z"></path><path class="cls-1 MbeCOZFY_1" d="M79.31,264.22h-9v9.72H80.34v2.92H67.28v-27H79.82v2.92H70.28v8.52h9Z"></path><path class="cls-1 MbeCOZFY_2" d="M91.6,276.86v-27h3.28l7.44,13.64a80.77,80.77,0,0,1,4.17,8.76l.07,0c-.28-3.6-.35-6.88-.35-11.08V249.9H109v27h-3l-7.38-13.68a89.83,89.83,0,0,1-4.34-9l-.1,0c.17,3.4.24,6.64.24,11.12v11.52Z"></path><path class="cls-1 MbeCOZFY_3" d="M133.67,264.22h-9v9.72H134.7v2.92H121.64v-27h12.55v2.92h-9.55v8.52h9Z"></path><path class="cls-1 MbeCOZFY_4" d="M145.55,272.62a9.59,9.59,0,0,0,5.38,1.76c3.06,0,4.85-1.88,4.85-4.6,0-2.52-1.24-4-4.37-5.36-3.79-1.56-6.13-3.84-6.13-7.64a7.1,7.1,0,0,1,7.51-7.32,9.38,9.38,0,0,1,5.13,1.32l-.83,2.84a8.26,8.26,0,0,0-4.41-1.28,4,4,0,0,0-4.37,4c0,2.52,1.41,3.76,4.61,5.2,3.93,1.76,5.93,4,5.93,7.92,0,4.16-2.65,7.76-8.13,7.76a10.74,10.74,0,0,1-5.93-1.72Z"></path><path class="cls-1 MbeCOZFY_5" d="M173.32,249.9v27h-3v-27Z"></path><path class="cls-1 MbeCOZFY_6" d="M185.51,272.62a9.59,9.59,0,0,0,5.38,1.76c3.06,0,4.86-1.88,4.86-4.6,0-2.52-1.24-4-4.38-5.36-3.79-1.56-6.13-3.84-6.13-7.64a7.1,7.1,0,0,1,7.51-7.32,9.35,9.35,0,0,1,5.13,1.32l-.82,2.84a8.29,8.29,0,0,0-4.41-1.28,4,4,0,0,0-4.38,4c0,2.52,1.41,3.76,4.62,5.2,3.92,1.76,5.92,4,5.92,7.92,0,4.16-2.65,7.76-8.13,7.76a10.7,10.7,0,0,1-5.92-1.72Z"></path><path class="cls-1 MbeCOZFY_7" d="M79.9,302.2a6.06,6.06,0,0,1-1-1.79,6.2,6.2,0,0,1-.38-2.15,6.34,6.34,0,0,1,.38-2.19,6,6,0,0,1,1-1.76,4.83,4.83,0,0,1,1.54-1.21,4.16,4.16,0,0,1,1.87-.45,4,4,0,0,1,1.87.44,4.86,4.86,0,0,1,1.54,1.22l-1.14,1.3a2.93,2.93,0,0,0-3.52-.8,3.11,3.11,0,0,0-1,.81,3.72,3.72,0,0,0-.68,1.18,4.2,4.2,0,0,0,0,2.91,3.56,3.56,0,0,0,.69,1.18,3.18,3.18,0,0,0,1,.81,2.93,2.93,0,0,0,1.25.28l1.87,1.44a4,4,0,0,1-1.87.44,4.16,4.16,0,0,1-1.87-.45A5,5,0,0,1,79.9,302.2Z"></path><path class="cls-1 MbeCOZFY_8" d="M90.65,294.54a10,10,0,0,1,2-.19,3,3,0,0,1,2.35.77,2.54,2.54,0,0,1,.64,1.79,2.47,2.47,0,0,1-1.53,2.41v0a2.35,2.35,0,0,1,1.19,1.91,17.66,17.66,0,0,0,.63,2.59H94.86a14.43,14.43,0,0,1-.54-2.26c-.24-1.3-.68-1.79-1.63-1.83h-1v4.09h-1Zm1,4.3h1.08a1.7,1.7,0,0,0,1.83-1.79,1.65,1.65,0,0,0-1.87-1.76,3.62,3.62,0,0,0-1,.11Z"></path><path class="cls-1 MbeCOZFY_9" d="M103.93,299.43h-3.16v3.41h3.52v1H99.72v-9.44h4.39v1h-3.34v3h3.16Z"></path><path class="cls-1 MbeCOZFY_10" d="M109.55,300.89l-.85,3h-1.08l2.76-9.44h1.27l2.77,9.44H113.3l-.87-3Zm2.66-.95-.79-2.72c-.18-.62-.31-1.18-.43-1.72h0c-.12.56-.25,1.13-.41,1.7l-.79,2.74Z"></path><path class="cls-1 MbeCOZFY_11" d="M118.81,295.45h-2.47v-1h6v1h-2.48v8.41h-1.06Z"></path><path class="cls-1 MbeCOZFY_12" d="M126.89,294.42v9.44h-1v-9.44Z"></path><path class="cls-1 MbeCOZFY_13" d="M138.24,299c0,3.25-1.7,5-3.77,5s-3.65-1.93-3.65-4.79,1.6-5,3.77-5S138.24,296.24,138.24,299Zm-6.3.15c0,2,.94,3.83,2.59,3.83s2.6-1.78,2.6-3.92c0-1.88-.84-3.84-2.59-3.84S131.94,297.12,131.94,299.19Z"></path><path class="cls-1 MbeCOZFY_14" d="M142.19,303.86v-9.44h1.14l2.61,4.77a29.7,29.7,0,0,1,1.46,3.07h0c-.1-1.26-.12-2.41-.12-3.88v-3.95h1v9.44h-1.06l-2.58-4.79a31.12,31.12,0,0,1-1.52-3.15h0c.06,1.19.09,2.33.09,3.89v4Z"></path><path class="cls-1 MbeCOZFY_15" d="M152.56,302.37a3.3,3.3,0,0,0,1.88.62,1.55,1.55,0,0,0,1.7-1.61c0-.88-.44-1.39-1.53-1.88-1.33-.54-2.15-1.34-2.15-2.67a2.49,2.49,0,0,1,2.63-2.57,3.33,3.33,0,0,1,1.79.46l-.28,1a2.91,2.91,0,0,0-1.55-.45,1.4,1.4,0,0,0-1.53,1.42c0,.88.5,1.31,1.62,1.82,1.37.61,2.07,1.38,2.07,2.77a2.61,2.61,0,0,1-2.84,2.72,3.82,3.82,0,0,1-2.08-.6Z"></path><path class="cls-2 MbeCOZFY_16" d="M59.96,77.5A2.49,2.49 0,1,1 64.94,77.5A2.49,2.49 0,1,1 59.96,77.5"></path><path class="cls-3 MbeCOZFY_17" d="M199.68,137.23c-10.37,31-37,56.75-69.34,63.42-33.71,6.94-69.69-8.27-89.92-35.74-20.87-28.36-22.5-68.32-4.19-98.37C53.62,38,87.65,20,121.11,23.08c33.05,3.06,63,26.46,75.63,56.92a82.09,82.09,0,0,1,4.57,14.86"></path><path class="cls-3 MbeCOZFY_18" d="M224.44,95.75C213.93,41,166.63,1.62,113.68,1.5,54.1,1.37,1.5,51,1.5,113.68c0,62.1,51.56,112.27,112.18,112.18,57.61-.08,107-45.52,111.92-104.44L179,120.51"></path><path class="cls-4 MbeCOZFY_19" d="M101.76,198.62L101.76,161.02L63.76,136.52L63.76,112.72L34.71,106.07"></path><path class="cls-5 MbeCOZFY_20" d="M98.78,201.6A2.98,2.98 0,1,1 104.74000000000001,201.6A2.98,2.98 0,1,1 98.78,201.6"></path><path class="cls-2 MbeCOZFY_21" d="M110.06,202.29A2.98,2.98 0,1,1 116.02000000000001,202.29A2.98,2.98 0,1,1 110.06,202.29"></path><path class="cls-6 MbeCOZFY_22" d="M121.75,201.6A2.98,2.98 0,1,1 127.71000000000001,201.6A2.98,2.98 0,1,1 121.75,201.6"></path><path class="cls-1 MbeCOZFY_23" d="M173.25,120.58A4.26,4.26 0,1,1 181.76999999999998,120.58A4.26,4.26 0,1,1 173.25,120.58"></path><path class="cls-7 MbeCOZFY_24" d="M124.73,200.17L124.73,133.55L143.48,117.91L151.3,93.65"></path><path class="cls-7 MbeCOZFY_25" d="M124.73,151.2L163.1,137.37L163.1,106.89L192.39,95.95"></path><path class="cls-8 MbeCOZFY_26" d="M113.09,201.03L113.09,87.03L99.37,72.15L116.87,42.98L116.87,24.32"></path><path class="cls-8 MbeCOZFY_27" d="M113.23,132.54L79.3,107.86L79.3,87.64L63.85,77.78"></path><path class="cls-8 MbeCOZFY_28" d="M113.23,104.04L137.83,86.05L130.87,68.52L141.28,58.11"></path><path class="cls-2 MbeCOZFY_29" d="M114.38000000000001,25.73A2.49,2.49 0,1,1 119.36,25.73A2.49,2.49 0,1,1 114.38000000000001,25.73"></path><path class="cls-2 MbeCOZFY_30" d="M138.78,58.11A2.49,2.49 0,1,1 143.76000000000002,58.11A2.49,2.49 0,1,1 138.78,58.11"></path><path class="cls-6 MbeCOZFY_31" d="M148.81,93.65A2.49,2.49 0,1,1 153.79000000000002,93.65A2.49,2.49 0,1,1 148.81,93.65"></path><path class="cls-6 MbeCOZFY_32" d="M187.73,97.11A2.49,2.49 0,1,1 192.71,97.11A2.49,2.49 0,1,1 187.73,97.11"></path><path class="cls-5 MbeCOZFY_33" d="M32.22,106.07A2.49,2.49 0,1,1 37.2,106.07A2.49,2.49 0,1,1 32.22,106.07"></path><text></text></g></g><style data-made-with="vivus-instant">.MbeCOZFY_0{stroke-dasharray:160 162;stroke-dashoffset:161;animation:MbeCOZFY_draw_0 14200ms linear 0ms infinite,MbeCOZFY_fade 14200ms linear 0ms infinite;}.MbeCOZFY_1{stroke-dasharray:118 120;stroke-dashoffset:119;animation:MbeCOZFY_draw_1 14200ms linear 0ms infinite,MbeCOZFY_fade 14200ms linear 0ms infinite;}.MbeCOZFY_2{stroke-dasharray:162 164;stroke-dashoffset:163;animation:MbeCOZFY_draw_2 14200ms linear 0ms infinite,MbeCOZFY_fade 14200ms linear 0ms infinite;}.MbeCOZFY_3{stroke-dasharray:118 120;stroke-dashoffset:119;animation:MbeCOZFY_draw_3 14200ms linear 0ms infinite,MbeCOZFY_fade 14200ms linear 0ms infinite;}.MbeCOZFY_4{stroke-dasharray:103 105;stroke-dashoffset:104;animation:MbeCOZFY_draw_4 14200ms linear 0ms infinite,MbeCOZFY_fade 14200ms linear 0ms infinite;}.MbeCOZFY_5{stroke-dasharray:60 62;stroke-dashoffset:61;animation:MbeCOZFY_draw_5 14200ms linear 0ms infinite,MbeCOZFY_fade 14200ms linear 0ms infinite;}.MbeCOZFY_6{stroke-dasharray:103 105;stroke-dashoffset:104;animation:MbeCOZFY_draw_6 14200ms linear 0ms infinite,MbeCOZFY_fade 14200ms linear 0ms infinite;}.MbeCOZFY_7{stroke-dasharray:40 42;stroke-dashoffset:41;animation:MbeCOZFY_draw_7 14200ms linear 0ms infinite,MbeCOZFY_fade 14200ms linear 0ms infinite;}.MbeCOZFY_8{stroke-dasharray:48 50;stroke-dashoffset:49;animation:MbeCOZFY_draw_8 14200ms linear 0ms infinite,MbeCOZFY_fade 14200ms linear 0ms infinite;}.MbeCOZFY_9{stroke-dasharray:42 44;stroke-dashoffset:43;animation:MbeCOZFY_draw_9 14200ms linear 0ms infinite,MbeCOZFY_fade 14200ms linear 0ms infinite;}.MbeCOZFY_10{stroke-dasharray:44 46;stroke-dashoffset:45;animation:MbeCOZFY_draw_10 14200ms linear 0ms infinite,MbeCOZFY_fade 14200ms linear 0ms infinite;}.MbeCOZFY_11{stroke-dasharray:31 33;stroke-dashoffset:32;animation:MbeCOZFY_draw_11 14200ms linear 0ms infinite,MbeCOZFY_fade 14200ms linear 0ms infinite;}.MbeCOZFY_12{stroke-dasharray:21 23;stroke-dashoffset:22;animation:MbeCOZFY_draw_12 14200ms linear 0ms infinite,MbeCOZFY_fade 14200ms linear 0ms infinite;}.MbeCOZFY_13{stroke-dasharray:49 51;stroke-dashoffset:50;animation:MbeCOZFY_draw_13 14200ms linear 0ms infinite,MbeCOZFY_fade 14200ms linear 0ms infinite;}.MbeCOZFY_14{stroke-dasharray:57 59;stroke-dashoffset:58;animation:MbeCOZFY_draw_14 14200ms linear 0ms infinite,MbeCOZFY_fade 14200ms linear 0ms infinite;}.MbeCOZFY_15{stroke-dasharray:37 39;stroke-dashoffset:38;animation:MbeCOZFY_draw_15 14200ms linear 0ms infinite,MbeCOZFY_fade 14200ms linear 0ms infinite;}.MbeCOZFY_16{stroke-dasharray:16 18;stroke-dashoffset:17;animation:MbeCOZFY_draw_16 14200ms linear 0ms infinite,MbeCOZFY_fade 14200ms linear 0ms infinite;}.MbeCOZFY_17{stroke-dasharray:520 522;stroke-dashoffset:521;animation:MbeCOZFY_draw_17 14200ms linear 0ms infinite,MbeCOZFY_fade 14200ms linear 0ms infinite;}.MbeCOZFY_18{stroke-dasharray:725 727;stroke-dashoffset:726;animation:MbeCOZFY_draw_18 14200ms linear 0ms infinite,MbeCOZFY_fade 14200ms linear 0ms infinite;}.MbeCOZFY_19{stroke-dasharray:137 139;stroke-dashoffset:138;animation:MbeCOZFY_draw_19 14200ms linear 0ms infinite,MbeCOZFY_fade 14200ms linear 0ms infinite;}.MbeCOZFY_20{stroke-dasharray:19 21;stroke-dashoffset:20;animation:MbeCOZFY_draw_20 14200ms linear 0ms infinite,MbeCOZFY_fade 14200ms linear 0ms infinite;}.MbeCOZFY_21{stroke-dasharray:19 21;stroke-dashoffset:20;animation:MbeCOZFY_draw_21 14200ms linear 0ms infinite,MbeCOZFY_fade 14200ms linear 0ms infinite;}.MbeCOZFY_22{stroke-dasharray:19 21;stroke-dashoffset:20;animation:MbeCOZFY_draw_22 14200ms linear 0ms infinite,MbeCOZFY_fade 14200ms linear 0ms infinite;}.MbeCOZFY_23{stroke-dasharray:27 29;stroke-dashoffset:28;animation:MbeCOZFY_draw_23 14200ms linear 0ms infinite,MbeCOZFY_fade 14200ms linear 0ms infinite;}.MbeCOZFY_24{stroke-dasharray:117 119;stroke-dashoffset:118;animation:MbeCOZFY_draw_24 14200ms linear 0ms infinite,MbeCOZFY_fade 14200ms linear 0ms infinite;}.MbeCOZFY_25{stroke-dasharray:103 105;stroke-dashoffset:104;animation:MbeCOZFY_draw_25 14200ms linear 0ms infinite,MbeCOZFY_fade 14200ms linear 0ms infinite;}.MbeCOZFY_26{stroke-dasharray:187 189;stroke-dashoffset:188;animation:MbeCOZFY_draw_26 14200ms linear 0ms infinite,MbeCOZFY_fade 14200ms linear 0ms infinite;}.MbeCOZFY_27{stroke-dasharray:81 83;stroke-dashoffset:82;animation:MbeCOZFY_draw_27 14200ms linear 0ms infinite,MbeCOZFY_fade 14200ms linear 0ms infinite;}.MbeCOZFY_28{stroke-dasharray:65 67;stroke-dashoffset:66;animation:MbeCOZFY_draw_28 14200ms linear 0ms infinite,MbeCOZFY_fade 14200ms linear 0ms infinite;}.MbeCOZFY_29{stroke-dasharray:16 18;stroke-dashoffset:17;animation:MbeCOZFY_draw_29 14200ms linear 0ms infinite,MbeCOZFY_fade 14200ms linear 0ms infinite;}.MbeCOZFY_30{stroke-dasharray:16 18;stroke-dashoffset:17;animation:MbeCOZFY_draw_30 14200ms linear 0ms infinite,MbeCOZFY_fade 14200ms linear 0ms infinite;}.MbeCOZFY_31{stroke-dasharray:16 18;stroke-dashoffset:17;animation:MbeCOZFY_draw_31 14200ms linear 0ms infinite,MbeCOZFY_fade 14200ms linear 0ms infinite;}.MbeCOZFY_32{stroke-dasharray:16 18;stroke-dashoffset:17;animation:MbeCOZFY_draw_32 14200ms linear 0ms infinite,MbeCOZFY_fade 14200ms linear 0ms infinite;}.MbeCOZFY_33{stroke-dasharray:16 18;stroke-dashoffset:17;animation:MbeCOZFY_draw_33 14200ms linear 0ms infinite,MbeCOZFY_fade 14200ms linear 0ms infinite;}@keyframes MbeCOZFY_draw{100%{stroke-dashoffset:0;}}@keyframes MbeCOZFY_fade{0%{stroke-opacity:1;}97.1830985915493%{stroke-opacity:1;}100%{stroke-opacity:0;}}@keyframes MbeCOZFY_draw_0{5.633802816901409%{stroke-dashoffset: 161}52.58215962441314%{ stroke-dashoffset: 0;}100%{ stroke-dashoffset: 0;}}@keyframes MbeCOZFY_draw_1{6.345141556409162%{stroke-dashoffset: 119}53.29349836392089%{ stroke-dashoffset: 0;}100%{ stroke-dashoffset: 0;}}@keyframes MbeCOZFY_draw_2{7.0564802959169155%{stroke-dashoffset: 163}54.00483710342865%{ stroke-dashoffset: 0;}100%{ stroke-dashoffset: 0;}}@keyframes MbeCOZFY_draw_3{7.76781903542467%{stroke-dashoffset: 119}54.7161758429364%{ stroke-dashoffset: 0;}100%{ stroke-dashoffset: 0;}}@keyframes MbeCOZFY_draw_4{8.479157774932423%{stroke-dashoffset: 104}55.42751458244416%{ stroke-dashoffset: 0;}100%{ stroke-dashoffset: 0;}}@keyframes MbeCOZFY_draw_5{9.190496514440175%{stroke-dashoffset: 61}56.138853321951906%{ stroke-dashoffset: 0;}100%{ stroke-dashoffset: 0;}}@keyframes MbeCOZFY_draw_6{9.90183525394793%{stroke-dashoffset: 104}56.85019206145966%{ stroke-dashoffset: 0;}100%{ stroke-dashoffset: 0;}}@keyframes MbeCOZFY_draw_7{10.613173993455684%{stroke-dashoffset: 41}57.56153080096741%{ stroke-dashoffset: 0;}100%{ stroke-dashoffset: 0;}}@keyframes MbeCOZFY_draw_8{11.324512732963438%{stroke-dashoffset: 49}58.27286954047517%{ stroke-dashoffset: 0;}100%{ stroke-dashoffset: 0;}}@keyframes MbeCOZFY_draw_9{12.03585147247119%{stroke-dashoffset: 43}58.98420827998293%{ stroke-dashoffset: 0;}100%{ stroke-dashoffset: 0;}}@keyframes MbeCOZFY_draw_10{12.747190211978946%{stroke-dashoffset: 45}59.69554701949068%{ stroke-dashoffset: 0;}100%{ stroke-dashoffset: 0;}}@keyframes MbeCOZFY_draw_11{13.458528951486699%{stroke-dashoffset: 32}60.40688575899843%{ stroke-dashoffset: 0;}100%{ stroke-dashoffset: 0;}}@keyframes MbeCOZFY_draw_12{14.169867690994451%{stroke-dashoffset: 22}61.11822449850618%{ stroke-dashoffset: 0;}100%{ stroke-dashoffset: 0;}}@keyframes MbeCOZFY_draw_13{14.881206430502205%{stroke-dashoffset: 50}61.82956323801394%{ stroke-dashoffset: 0;}100%{ stroke-dashoffset: 0;}}@keyframes MbeCOZFY_draw_14{15.592545170009961%{stroke-dashoffset: 58}62.5409019775217%{ stroke-dashoffset: 0;}100%{ stroke-dashoffset: 0;}}@keyframes MbeCOZFY_draw_15{16.30388390951771%{stroke-dashoffset: 38}63.25224071702944%{ stroke-dashoffset: 0;}100%{ stroke-dashoffset: 0;}}@keyframes MbeCOZFY_draw_16{17.015222649025468%{stroke-dashoffset: 17}63.963579456537204%{ stroke-dashoffset: 0;}100%{ stroke-dashoffset: 0;}}@keyframes MbeCOZFY_draw_17{17.72656138853322%{stroke-dashoffset: 521}64.67491819604496%{ stroke-dashoffset: 0;}100%{ stroke-dashoffset: 0;}}@keyframes MbeCOZFY_draw_18{18.437900128040972%{stroke-dashoffset: 726}65.3862569355527%{ stroke-dashoffset: 0;}100%{ stroke-dashoffset: 0;}}@keyframes MbeCOZFY_draw_19{19.149238867548725%{stroke-dashoffset: 138}66.09759567506046%{ stroke-dashoffset: 0;}100%{ stroke-dashoffset: 0;}}@keyframes MbeCOZFY_draw_20{19.86057760705648%{stroke-dashoffset: 20}66.80893441456821%{ stroke-dashoffset: 0;}100%{ stroke-dashoffset: 0;}}@keyframes MbeCOZFY_draw_21{20.57191634656423%{stroke-dashoffset: 20}67.52027315407597%{ stroke-dashoffset: 0;}100%{ stroke-dashoffset: 0;}}@keyframes MbeCOZFY_draw_22{21.283255086071986%{stroke-dashoffset: 20}68.23161189358372%{ stroke-dashoffset: 0;}100%{ stroke-dashoffset: 0;}}@keyframes MbeCOZFY_draw_23{21.99459382557974%{stroke-dashoffset: 28}68.94295063309147%{ stroke-dashoffset: 0;}100%{ stroke-dashoffset: 0;}}@keyframes MbeCOZFY_draw_24{22.705932565087494%{stroke-dashoffset: 118}69.65428937259922%{ stroke-dashoffset: 0;}100%{ stroke-dashoffset: 0;}}@keyframes MbeCOZFY_draw_25{23.417271304595246%{stroke-dashoffset: 104}70.36562811210698%{ stroke-dashoffset: 0;}100%{ stroke-dashoffset: 0;}}@keyframes MbeCOZFY_draw_26{24.128610044103002%{stroke-dashoffset: 188}71.07696685161474%{ stroke-dashoffset: 0;}100%{ stroke-dashoffset: 0;}}@keyframes MbeCOZFY_draw_27{24.839948783610758%{stroke-dashoffset: 82}71.7883055911225%{ stroke-dashoffset: 0;}100%{ stroke-dashoffset: 0;}}@keyframes MbeCOZFY_draw_28{25.55128752311851%{stroke-dashoffset: 66}72.49964433063025%{ stroke-dashoffset: 0;}100%{ stroke-dashoffset: 0;}}@keyframes MbeCOZFY_draw_29{26.262626262626267%{stroke-dashoffset: 17}73.21098307013798%{ stroke-dashoffset: 0;}100%{ stroke-dashoffset: 0;}}@keyframes MbeCOZFY_draw_30{26.973965002134015%{stroke-dashoffset: 17}73.92232180964575%{ stroke-dashoffset: 0;}100%{ stroke-dashoffset: 0;}}@keyframes MbeCOZFY_draw_31{27.68530374164177%{stroke-dashoffset: 17}74.6336605491535%{ stroke-dashoffset: 0;}100%{ stroke-dashoffset: 0;}}@keyframes MbeCOZFY_draw_32{28.396642481149527%{stroke-dashoffset: 17}75.34499928866126%{ stroke-dashoffset: 0;}100%{ stroke-dashoffset: 0;}}@keyframes MbeCOZFY_draw_33{29.10798122065728%{stroke-dashoffset: 17}76.05633802816901%{ stroke-dashoffset: 0;}100%{ stroke-dashoffset: 0;}}</style></svg>