<svg xmlns="http://www.w3.org/2000/svg" width="250" height="250" 
viewBox="0 0 227.23 227.36" style=""><defs><style>.cls-1{fill:#be1e2d;}.cls-2,.cls-3,.cls-7,.cls-8{fill:none;stroke-miterlimit:10;}.cls-2{stroke:#fff;stroke-linecap:round;stroke-width:3px;}.cls-3{stroke:#1b75bc;}.cls-3,.cls-7,.cls-8{stroke-width:2px;}.cls-4{fill:#1b75bc;}.cls-5{fill:#39b54a;}.cls-6{fill:#fff;}.cls-7{stroke:#39b54a;}.cls-8{stroke:#be1e2d;}</style></defs><title>Asset 8</title><g id="Layer_2" data-name="Layer 2"><g id="Layer_1-2" data-name="Layer 1"><path class="cls-1 KcKsKepe_0" d="M59.96,77.5A2.49,2.49 0,1,1 64.94,77.5A2.49,2.49 0,1,1 59.96,77.5"></path><path class="cls-2 KcKsKepe_1" d="M199.68,137.23c-10.37,31-37,56.75-69.34,63.42-33.71,6.94-69.69-8.27-89.92-35.74-20.87-28.36-22.5-68.32-4.19-98.37C53.62,38,87.65,20,121.11,23.08c33.05,3.06,63,26.46,75.63,56.92a82.09,82.09,0,0,1,4.57,14.86"></path><path class="cls-2 KcKsKepe_2" d="M224.44,95.75C213.93,41,166.63,1.62,113.68,1.5,54.1,1.37,1.5,51,1.5,113.68c0,62.1,51.56,112.27,112.18,112.18,57.61-.08,107-45.52,111.92-104.44L179,120.51"></path><path class="cls-3 KcKsKepe_3" d="M101.76,198.62L101.76,161.02L63.76,136.52L63.76,112.72L34.71,106.07"></path><path class="cls-4 KcKsKepe_4" d="M98.78,201.6A2.98,2.98 0,1,1 104.74000000000001,201.6A2.98,2.98 0,1,1 98.78,201.6"></path><path class="cls-1 KcKsKepe_5" d="M110.06,202.29A2.98,2.98 0,1,1 116.02000000000001,202.29A2.98,2.98 0,1,1 110.06,202.29"></path><path class="cls-5 KcKsKepe_6" d="M121.75,201.6A2.98,2.98 0,1,1 127.71000000000001,201.6A2.98,2.98 0,1,1 121.75,201.6"></path><path class="cls-6 KcKsKepe_7" d="M173.25,120.58A4.26,4.26 0,1,1 181.76999999999998,120.58A4.26,4.26 0,1,1 173.25,120.58"></path><path class="cls-7 KcKsKepe_8" d="M124.73,200.17L124.73,133.55L143.48,117.91L151.3,93.65"></path><path class="cls-7 KcKsKepe_9" d="M124.73,151.2L163.1,137.37L163.1,106.89L192.39,95.95"></path><path class="cls-8 KcKsKepe_10" d="M113.09,201.03L113.09,87.03L99.37,72.15L116.87,42.98L116.87,24.32"></path><path class="cls-8 KcKsKepe_11" d="M113.23,132.54L79.3,107.86L79.3,87.64L63.85,77.78"></path><path class="cls-8 KcKsKepe_12" d="M113.23,104.04L137.83,86.05L130.87,68.52L141.28,58.11"></path><path class="cls-1 KcKsKepe_13" d="M114.38000000000001,25.73A2.49,2.49 0,1,1 119.36,25.73A2.49,2.49 0,1,1 114.38000000000001,25.73"></path><path class="cls-1 KcKsKepe_14" d="M138.78,58.11A2.49,2.49 0,1,1 143.76000000000002,58.11A2.49,2.49 0,1,1 138.78,58.11"></path><path class="cls-5 KcKsKepe_15" d="M148.81,93.65A2.49,2.49 0,1,1 153.79000000000002,93.65A2.49,2.49 0,1,1 148.81,93.65"></path><path class="cls-5 KcKsKepe_16" d="M187.73,97.11A2.49,2.49 0,1,1 192.71,97.11A2.49,2.49 0,1,1 187.73,97.11"></path><path class="cls-4 KcKsKepe_17" d="M32.22,106.07A2.49,2.49 0,1,1 37.2,106.07A2.49,2.49 0,1,1 32.22,106.07"></path></g></g><style data-made-with="vivus-instant">.KcKsKepe_0{stroke-dasharray:16 18;stroke-dashoffset:17;animation:KcKsKepe_draw_0 14200ms linear 0ms infinite,KcKsKepe_fade 14200ms linear 0ms infinite;}.KcKsKepe_1{stroke-dasharray:520 522;stroke-dashoffset:521;animation:KcKsKepe_draw_1 14200ms linear 0ms infinite,KcKsKepe_fade 14200ms linear 0ms infinite;}.KcKsKepe_2{stroke-dasharray:725 727;stroke-dashoffset:726;animation:KcKsKepe_draw_2 14200ms linear 0ms infinite,KcKsKepe_fade 14200ms linear 0ms infinite;}.KcKsKepe_3{stroke-dasharray:137 139;stroke-dashoffset:138;animation:KcKsKepe_draw_3 14200ms linear 0ms infinite,KcKsKepe_fade 14200ms linear 0ms infinite;}.KcKsKepe_4{stroke-dasharray:19 21;stroke-dashoffset:20;animation:KcKsKepe_draw_4 14200ms linear 0ms infinite,KcKsKepe_fade 14200ms linear 0ms infinite;}.KcKsKepe_5{stroke-dasharray:19 21;stroke-dashoffset:20;animation:KcKsKepe_draw_5 14200ms linear 0ms infinite,KcKsKepe_fade 14200ms linear 0ms infinite;}.KcKsKepe_6{stroke-dasharray:19 21;stroke-dashoffset:20;animation:KcKsKepe_draw_6 14200ms linear 0ms infinite,KcKsKepe_fade 14200ms linear 0ms infinite;}.KcKsKepe_7{stroke-dasharray:27 29;stroke-dashoffset:28;animation:KcKsKepe_draw_7 14200ms linear 0ms infinite,KcKsKepe_fade 14200ms linear 0ms infinite;}.KcKsKepe_8{stroke-dasharray:117 119;stroke-dashoffset:118;animation:KcKsKepe_draw_8 14200ms linear 0ms infinite,KcKsKepe_fade 14200ms linear 0ms infinite;}.KcKsKepe_9{stroke-dasharray:103 105;stroke-dashoffset:104;animation:KcKsKepe_draw_9 14200ms linear 0ms infinite,KcKsKepe_fade 14200ms linear 0ms infinite;}.KcKsKepe_10{stroke-dasharray:187 189;stroke-dashoffset:188;animation:KcKsKepe_draw_10 14200ms linear 0ms infinite,KcKsKepe_fade 14200ms linear 0ms infinite;}.KcKsKepe_11{stroke-dasharray:81 83;stroke-dashoffset:82;animation:KcKsKepe_draw_11 14200ms linear 0ms infinite,KcKsKepe_fade 14200ms linear 0ms infinite;}.KcKsKepe_12{stroke-dasharray:65 67;stroke-dashoffset:66;animation:KcKsKepe_draw_12 14200ms linear 0ms infinite,KcKsKepe_fade 14200ms linear 0ms infinite;}.KcKsKepe_13{stroke-dasharray:16 18;stroke-dashoffset:17;animation:KcKsKepe_draw_13 14200ms linear 0ms infinite,KcKsKepe_fade 14200ms linear 0ms infinite;}.KcKsKepe_14{stroke-dasharray:16 18;stroke-dashoffset:17;animation:KcKsKepe_draw_14 14200ms linear 0ms infinite,KcKsKepe_fade 14200ms linear 0ms infinite;}.KcKsKepe_15{stroke-dasharray:16 18;stroke-dashoffset:17;animation:KcKsKepe_draw_15 14200ms linear 0ms infinite,KcKsKepe_fade 14200ms linear 0ms infinite;}.KcKsKepe_16{stroke-dasharray:16 18;stroke-dashoffset:17;animation:KcKsKepe_draw_16 14200ms linear 0ms infinite,KcKsKepe_fade 14200ms linear 0ms infinite;}.KcKsKepe_17{stroke-dasharray:16 18;stroke-dashoffset:17;animation:KcKsKepe_draw_17 14200ms linear 0ms infinite,KcKsKepe_fade 14200ms linear 0ms infinite;}@keyframes KcKsKepe_draw{100%{stroke-dashoffset:0;}}@keyframes KcKsKepe_fade{0%{stroke-opacity:1;}97.1830985915493%{stroke-opacity:1;}100%{stroke-opacity:0;}}@keyframes KcKsKepe_draw_0{5.633802816901409%{stroke-dashoffset: 17}52.58215962441314%{ stroke-dashoffset: 0;}100%{ stroke-dashoffset: 0;}}@keyframes KcKsKepe_draw_1{7.014636840651754%{stroke-dashoffset: 521}53.96299364816348%{ stroke-dashoffset: 0;}100%{ stroke-dashoffset: 0;}}@keyframes KcKsKepe_draw_2{8.3954708644021%{stroke-dashoffset: 726}55.34382767191383%{ stroke-dashoffset: 0;}100%{ stroke-dashoffset: 0;}}@keyframes KcKsKepe_draw_3{9.776304888152444%{stroke-dashoffset: 138}56.72466169566418%{ stroke-dashoffset: 0;}100%{ stroke-dashoffset: 0;}}@keyframes KcKsKepe_draw_4{11.157138911902791%{stroke-dashoffset: 20}58.10549571941452%{ stroke-dashoffset: 0;}100%{ stroke-dashoffset: 0;}}@keyframes KcKsKepe_draw_5{12.537972935653135%{stroke-dashoffset: 20}59.486329743164866%{ stroke-dashoffset: 0;}100%{ stroke-dashoffset: 0;}}@keyframes KcKsKepe_draw_6{13.91880695940348%{stroke-dashoffset: 20}60.86716376691521%{ stroke-dashoffset: 0;}100%{ stroke-dashoffset: 0;}}@keyframes KcKsKepe_draw_7{15.299640983153829%{stroke-dashoffset: 28}62.247997790665565%{ stroke-dashoffset: 0;}100%{ stroke-dashoffset: 0;}}@keyframes KcKsKepe_draw_8{16.68047500690417%{stroke-dashoffset: 118}63.62883181441591%{ stroke-dashoffset: 0;}100%{ stroke-dashoffset: 0;}}@keyframes KcKsKepe_draw_9{18.061309030654517%{stroke-dashoffset: 104}65.00966583816626%{ stroke-dashoffset: 0;}100%{ stroke-dashoffset: 0;}}@keyframes KcKsKepe_draw_10{19.442143054404863%{stroke-dashoffset: 188}66.3904998619166%{ stroke-dashoffset: 0;}100%{ stroke-dashoffset: 0;}}@keyframes KcKsKepe_draw_11{20.822977078155205%{stroke-dashoffset: 82}67.77133388566695%{ stroke-dashoffset: 0;}100%{ stroke-dashoffset: 0;}}@keyframes KcKsKepe_draw_12{22.20381110190555%{stroke-dashoffset: 66}69.1521679094173%{ stroke-dashoffset: 0;}100%{ stroke-dashoffset: 0;}}@keyframes KcKsKepe_draw_13{23.584645125655896%{stroke-dashoffset: 17}70.53300193316764%{ stroke-dashoffset: 0;}100%{ stroke-dashoffset: 0;}}@keyframes KcKsKepe_draw_14{24.965479149406246%{stroke-dashoffset: 17}71.91383595691798%{ stroke-dashoffset: 0;}100%{ stroke-dashoffset: 0;}}@keyframes KcKsKepe_draw_15{26.346313173156588%{stroke-dashoffset: 17}73.29466998066833%{ stroke-dashoffset: 0;}100%{ stroke-dashoffset: 0;}}@keyframes KcKsKepe_draw_16{27.72714719690693%{stroke-dashoffset: 17}74.67550400441867%{ stroke-dashoffset: 0;}100%{ stroke-dashoffset: 0;}}@keyframes KcKsKepe_draw_17{29.10798122065728%{stroke-dashoffset: 17}76.05633802816901%{ stroke-dashoffset: 0;}100%{ stroke-dashoffset: 0;}}</style></svg>