<svg xmlns="http://www.w3.org/2000/svg" viewBox="0 0 790.18 1051.34" height="250" width="250" style=""><defs><style>.cls-1{fill:none;stroke:#fff;stroke-linecap:round;stroke-linejoin:round;stroke-width:10px;}</style></defs><title>Asset 1</title><g id="Layer_2" data-name="Layer 2"><g id="New_VF_Speech_Mark_AW" data-name="New VF Speech Mark AW"><path class="cls-1 CjhPuMrB_0" d="M403.17,1046.33C208.46,1047,5.89,880.8,5,614c-.58-176.47,94.62-346.33,216.32-447.1C340,68.57,502.63,5.49,650.11,5c15.73,0,32.06,1,44.11,3.74l.22,0c2.93.64,3.44,2.61.21,3.27a2.61,2.61,0,0,0-.27.06C568.6,41.57,469.53,159.76,470,293.54a73.51,73.51,0,0,0,.86,11.55C686.62,357.64,784.58,487.84,785.18,668S643.55,1045.54,403.17,1046.33Z"></path></g></g><style data-made-with="vivus-instant">.CjhPuMrB_0{stroke-dasharray:3205 3207;stroke-dashoffset:3206;animation:CjhPuMrB_draw_0 9200ms linear 0ms infinite,CjhPuMrB_fade 9200ms linear 0ms infinite;}@keyframes CjhPuMrB_draw{100%{stroke-dashoffset:0;}}@keyframes CjhPuMrB_fade{0%{stroke-opacity:1;}95.65217391304348%{stroke-opacity:1;}100%{stroke-opacity:0;}}@keyframes CjhPuMrB_draw_0{8.695652173913043%{stroke-dashoffset: 3206}44.927536231884055%{ stroke-dashoffset: 0;}100%{ stroke-dashoffset: 0;}}</style></svg>